<svg
   width="152.04512mm"
   height="151.39545mm"
   viewBox="0 0 538.74255 536.44056"
   id="svg2"
   version="1.1"
   inkscape:version="0.91 r13725"
   

  <g
     
     inkscape:groupmode="layer"
     id="facebook">
     transform="translate(1.8323686,-5.8476006)">
    <path
       style="fill:#000000;fill-opacity:1;stroke:#000000;stroke-width:1.60000002;stroke-miterlimit:4;stroke-dasharray:none;stroke-opacity:1"
       d="M 267.5399,6.6476006 A 268.57144,268.57144 0 0 0 -1.0323686,275.21987 268.57144,268.57144 0 0 0 205.95592,536.33705 l -0.45704,-76.27539 -1.01367,-112.24804 -22.65234,-1.01367 -22.99024,-1.01368 0,-35.16211 0,-35.16211 22.99024,-1.01367 22.65234,-1.01562 2.02735,-40.57031 c 2.02857,-43.95239 6.76186,-60.51928 22.65234,-77.08594 12.17143,-12.84762 24.34423,-18.93423 49.36328,-24.34375 11.15714,-2.36667 37.86622,-4.73242 58.82812,-4.73242 l 37.86719,-0.33789 0,37.18945 0,37.19141 -23.33008,0 c -28.4,0 -43.9521,5.07044 -45.64257,14.5371 -3.38096,16.56667 -5.40944,49.02428 -3.38086,54.09571 1.69047,4.73333 7.43882,5.74804 37.52929,5.74804 l 35.83789,0 -2.36718,24.34375 c -1.35238,13.52381 -3.04215,29.75239 -4.39453,35.5 l -1.69141,11.15625 -29.41406,0 c -18.25715,0 -31.10404,1.68998 -33.47071,4.05665 -3.04285,3.04285 -4.05664,32.79505 -4.05664,113.26171 l 0,77.93946 A 268.57144,268.57144 0 0 0 536.11021,275.21987 268.57144,268.57144 0 0 0 267.5399,6.6476006 Z"
       id="path4136"
        />
    <g
       id="g4227"
       transform="matrix(3.3809524,0,0,3.3809524,-391.53928,-126.20922)">
      <g
         id="g4216"
         transform="matrix(0.1,0,0,-0.1,0,300)"
         style="fill:#070707;stroke:none" />
      <g
         id="g4219"
         transform="matrix(0.1,0,0,-0.1,0,300)"
         style="fill:#a3a3a3;stroke:none" />
    </g>
  </g>
</svg>
