<?xml version="1.0" encoding="utf-8"?>
<!-- Generator: Adobe Illustrator 16.0.0, SVG Export Plug-In . SVG Version: 6.00 Build 0)  -->
<!DOCTYPE svg PUBLIC "-//W3C//DTD SVG 1.1//EN" "http://www.w3.org/Graphics/SVG/1.1/DTD/svg11.dtd">
<svg version="1.1" xmlns="http://www.w3.org/2000/svg" xmlns:xlink="http://www.w3.org/1999/xlink" x="0px" y="0px"
	viewBox="0 0 677.67 110.917" enable-background="new 0 0 677.67 110.917"
	 xml:space="preserve">
<g id="Strich_1_">
	<path id="Strich" fill-rule="evenodd" clip-rule="evenodd" d="M321.447,74.899c9.773,0.018,17.007,0.027,23.679,0.046
		c6.802,0.02,13.055,0.048,20.768,0.079c4.131-0.038,7.832-0.067,10.922-0.099c6.624-0.07,11.055-0.165,26.66-0.149
		c17.248,0.017,33.943,0.053,40.375,0.186c6.623,0.138,12.265,0.279,18.695,0.425c20.528-0.037,41.775-0.072,62.783-0.111
		c10.563-0.021,20.277-0.029,29.271,0.03c4.851,0.032,10.683,0.056,16.264,0.081c13.666,0.058,27.69,0.089,42.565,0.018
		c1.51-0.007,3.342-0.016,5.103-0.017c10.924-0.003,26.768-0.035,31.631,0.003c6.491,0.051,8.132,0.161,5.461,0.236
		c-3.281,0.093-4.67,0.155,6.133,0.232c10.444,0.073,14.516,0.171,2.491,0.27c-6.071,0.05-7.773,0.108-1.58,0.167
		c12.323,0.114,4.981,0.241-0.552,0.344c-3.03,0.058-19.187,0.104-30.23,0.114c-27.93,0.028-34.672,0.051-39.523,0.241
		c-4.251,0.169-8.012,0.335-6.443,0.514c1.462,0.159-8.742,0.323-23.857,0.457c-8.443,0.074-12.203,0.152-13.665,0.253
		c-2.06,0.149-10.433,0.294-17.605,0.437c-2.241,0.046-8.014,0.096-14.085,0.117c-23.68,0.084-33.871,0.224-36.733,0.391
		c-14.384,0.07-28.96,0.13-41.583,0.206c-20.649,0.123-31.751,0.14-58.173,0.055c-17.233,0.129-36.792,0.24-65.632,0.196
		c-27.439-0.042-47.164-0.138-51.117-0.348c-9.354-0.011-17.307-0.011-24.169-0.03c-13.595-0.038-29.56-0.06-33.081-0.19
		c-0.61-0.023-3.041-0.05-5.832-0.063c-20.768-0.097-36.912-0.227-52.459-0.36c-14.814-0.128-28.84-0.261-42.373-0.396
		c-10.816-0.108-18.768-0.224-35.764-0.304c-16.576-0.079-23.618-0.221-28.169-0.371c19.486-0.092,30.899-0.214,27.199-0.386
		c17.846-0.218,1.21-0.458,9.533-0.688c4.671-0.127-2.683-0.274-2.802-0.413c-0.121-0.071,0.61-0.163,6.563-0.21
		c21.618-0.171,22.769-0.39,32.541-0.589c1.15-0.024,3.521-0.045,6.072-0.077c31.99,0.029,42.015,0.206,53.249,0.373
		c1.509-0.001,3.82,0.001,4.911-0.006c23.81-0.15,48.457-0.183,79.789-0.091c27.318,0.078,28.528,0.054,38.423-0.134
		C304.573,75.194,312.824,75.054,321.447,74.899z"/>
</g>
<g id="gestaltet">
	<path id="g" d="M275.267,5.341c3.559,1.339,6.336,3.204,8.332,5.597l-1.197,1.111c-4.102-4.728-10.596-7.093-19.482-7.093
		c-6.781,0-12.748,1.553-17.902,4.657c-5.158,3.105-9.145,7.293-11.965,12.562c-2.818,5.27-4.229,11.038-4.229,17.304
		c0,6.894,2.178,12.377,6.537,16.45c4.357,4.074,10.639,6.11,18.842,6.11c7.121,0,13.473-2.278,19.057-6.836l4.186-21.106h1.625
		l-4.359,21.875c-2.621,2.393-5.711,4.273-9.271,5.64s-7.363,2.051-11.408,2.051c-5.697,0-10.566-0.996-14.611-2.991
		c-4.045-1.994-7.107-4.813-9.186-8.46c-2.082-3.645-3.119-7.89-3.119-12.732c0-6.437,1.451-12.419,4.357-17.945
		c2.906-5.525,7.092-9.94,12.561-13.245c5.471-3.303,11.822-4.956,19.057-4.956C267.646,3.333,271.706,4.003,275.267,5.341z"/>
	<path id="e1" d="M299.405,41.273c-0.172,1.367-0.256,2.764-0.256,4.187c0,5.356,1.537,9.458,4.613,12.306
		c3.076,2.849,7.52,4.272,13.332,4.272c3.303,0,6.35-0.583,9.143-1.752c2.791-1.167,5.098-2.777,6.922-4.828l1.025,1.111
		c-1.824,2.166-4.26,3.888-7.307,5.17c-3.049,1.282-6.338,1.923-9.869,1.923c-6.152,0-10.938-1.581-14.357-4.743
		c-3.418-3.162-5.127-7.648-5.127-13.459c0-4.956,1.025-9.456,3.076-13.501c2.051-4.044,4.871-7.221,8.461-9.528
		c3.588-2.307,7.605-3.461,12.049-3.461c5.582,0,9.982,1.596,13.203,4.786c3.217,3.191,4.826,7.577,4.826,13.16
		c0,1.482-0.143,2.935-0.426,4.358H299.405z M307.224,25.849c-3.902,3.504-6.424,8.105-7.563,13.801h37.686
		c0.113-0.74,0.17-1.823,0.17-3.247c0-5.013-1.494-8.9-4.486-11.665c-2.99-2.762-6.965-4.145-11.92-4.145
		C315.755,20.594,311.126,22.346,307.224,25.849z"/>
	<path id="s" d="M358.794,61.996c-3.02-1.111-5.328-2.521-6.922-4.229l1.281-1.368c1.652,1.767,3.846,3.148,6.58,4.145
		c2.734,0.998,5.611,1.496,8.631,1.496c5.07,0,9.059-0.968,11.963-2.905c2.906-1.936,4.359-4.615,4.359-8.033
		c0-1.936-0.557-3.474-1.666-4.614c-1.111-1.139-2.479-1.979-4.104-2.521c-1.623-0.541-3.859-1.125-6.707-1.752
		c-2.963-0.626-5.371-1.252-7.221-1.88c-1.852-0.626-3.404-1.624-4.658-2.991c-1.252-1.367-1.879-3.247-1.879-5.64
		c0-3.816,1.594-6.892,4.785-9.229c3.189-2.335,7.404-3.504,12.646-3.504c2.734,0,5.385,0.414,7.947,1.239
		c2.564,0.826,4.586,1.922,6.068,3.29l-1.197,1.282c-1.539-1.367-3.447-2.406-5.725-3.119c-2.279-0.712-4.672-1.068-7.178-1.068
		c-4.73,0-8.518,0.998-11.365,2.991c-2.85,1.995-4.273,4.672-4.273,8.032c0,1.995,0.568,3.561,1.709,4.7
		c1.139,1.14,2.549,1.995,4.23,2.563c1.68,0.57,3.887,1.14,6.621,1.709c3.02,0.627,5.428,1.254,7.221,1.88
		c1.795,0.627,3.318,1.624,4.572,2.991c1.252,1.368,1.881,3.219,1.881,5.555c0,3.931-1.625,7.022-4.871,9.271
		c-3.248,2.251-7.662,3.375-13.246,3.375C364.974,63.662,361.813,63.106,358.794,61.996z"/>
	<path id="t1_1_" d="M410.407,51.528c-0.285,1.538-0.428,2.764-0.428,3.674c0,4.559,2.508,6.836,7.521,6.836
		c2.904,0,5.496-0.911,7.775-2.734l0.939,1.196c-1.141,1.025-2.508,1.809-4.102,2.35c-1.596,0.542-3.191,0.812-4.785,0.812
		c-2.963,0-5.213-0.727-6.75-2.179c-1.539-1.453-2.309-3.517-2.309-6.195c0-1.139,0.115-2.25,0.342-3.333l6.238-31.105h-8.545
		l0.256-1.624h8.547l1.965-9.656h1.709l-1.965,9.656h14.953l-0.256,1.624H416.56L410.407,51.528z"/>
	<path id="a" d="M492.185,19.227l-8.801,44.179h-1.709l2.307-11.536c-2.107,3.704-4.971,6.595-8.588,8.673
		c-3.617,2.081-7.678,3.119-12.178,3.119c-5.754,0-10.326-1.609-13.715-4.828c-3.389-3.218-5.084-7.59-5.084-13.117
		c0-5.069,1.068-9.626,3.205-13.672c2.137-4.044,5.098-7.234,8.887-9.57c3.787-2.335,8.076-3.504,12.861-3.504
		c5.24,0,9.428,1.269,12.561,3.803c3.133,2.536,5.012,6.139,5.641,10.81l2.904-14.356H492.185z M475.224,58.792
		c3.502-2.165,6.25-5.155,8.246-8.973c1.992-3.816,2.99-8.089,2.99-12.818c0-5.184-1.525-9.214-4.572-12.092
		c-3.047-2.876-7.307-4.315-12.775-4.315c-4.33,0-8.246,1.083-11.75,3.248c-3.502,2.166-6.252,5.156-8.246,8.972
		c-1.994,3.817-2.99,8.09-2.99,12.818c0,5.185,1.523,9.216,4.572,12.092c3.047,2.877,7.307,4.315,12.775,4.315
		C467.802,62.039,471.72,60.957,475.224,58.792z"/>
	<path id="l" d="M524.144,0h1.709l-12.646,63.406h-1.709L524.144,0z"/>
	<path id="t1" d="M544.483,51.528c-0.287,1.538-0.428,2.764-0.428,3.674c0,4.559,2.506,6.836,7.52,6.836
		c2.906,0,5.498-0.911,7.777-2.734l0.939,1.196c-1.141,1.025-2.508,1.809-4.102,2.35c-1.596,0.542-3.191,0.812-4.785,0.812
		c-2.963,0-5.213-0.727-6.752-2.179c-1.537-1.453-2.307-3.517-2.307-6.195c0-1.139,0.113-2.25,0.342-3.333l6.238-31.105h-8.545
		l0.256-1.624h8.545l1.965-9.656h1.709l-1.965,9.656h14.955l-0.258,1.624h-14.953L544.483,51.528z"/>
	<path id="e2" d="M580.458,41.273c-0.172,1.367-0.256,2.764-0.256,4.187c0,5.356,1.537,9.458,4.613,12.306
		c3.076,2.849,7.52,4.272,13.332,4.272c3.303,0,6.35-0.583,9.143-1.752c2.791-1.167,5.098-2.777,6.922-4.828l1.025,1.111
		c-1.824,2.166-4.26,3.888-7.307,5.17c-3.049,1.282-6.338,1.923-9.869,1.923c-6.152,0-10.938-1.581-14.357-4.743
		c-3.418-3.162-5.127-7.648-5.127-13.459c0-4.956,1.025-9.456,3.076-13.501c2.051-4.044,4.871-7.221,8.461-9.528
		c3.588-2.307,7.605-3.461,12.049-3.461c5.582,0,9.982,1.596,13.203,4.786c3.217,3.191,4.826,7.577,4.826,13.16
		c0,1.482-0.143,2.935-0.426,4.358H580.458z M588.276,25.849c-3.902,3.504-6.424,8.105-7.563,13.801h37.686
		c0.113-0.74,0.17-1.823,0.17-3.247c0-5.013-1.494-8.9-4.486-11.665c-2.99-2.762-6.965-4.145-11.92-4.145
		C596.808,20.594,592.179,22.346,588.276,25.849z"/>
	<path id="t2" d="M643.351,51.528c-0.287,1.538-0.428,2.764-0.428,3.674c0,4.559,2.506,6.836,7.52,6.836
		c2.906,0,5.498-0.911,7.777-2.734l0.939,1.196c-1.141,1.025-2.508,1.809-4.102,2.35c-1.596,0.542-3.191,0.812-4.785,0.812
		c-2.963,0-5.213-0.727-6.752-2.179c-1.537-1.453-2.307-3.517-2.307-6.195c0-1.139,0.113-2.25,0.342-3.333l6.238-31.105h-8.545
		l0.256-1.624h8.545l1.965-9.656h1.709l-1.965,9.656h14.955l-0.258,1.624h-14.953L643.351,51.528z"/>
</g>
<g id="quer">
	<path id="punkt_1_" fill-rule="evenodd" clip-rule="evenodd" d="M209.307,53.407c0.133,0.035,0.231,0.053,0.322,0.09
		c0.093,0.038,0.178,0.094,0.283,0.152c0.057-0.073,0.106-0.129,0.148-0.191c0.09-0.136,0.15-0.319,0.363-0.289
		c0.234,0.033,0.462,0.103,0.55,0.36c0.09,0.267,0.167,0.539,0.255,0.823c0.279-0.07,0.569-0.14,0.855-0.216
		c0.144-0.038,0.275-0.056,0.398,0.058c0.065,0.062,0.146,0.109,0.222,0.157c0.187,0.113,0.377,0.174,0.579,0.036
		c0.021-0.014,0.046-0.032,0.069-0.033c0.149-0.005,0.365-0.065,0.432,0.008c0.088,0.099,0.111,0.313,0.075,0.456
		c-0.046,0.18-0.065,0.302,0.083,0.45c0.143,0.142,0.197,0.333,0.033,0.521c-0.082,0.095-0.105,0.209-0.021,0.322
		c0.169,0.223,0.068,0.468-0.008,0.669c-0.04,0.111-0.261,0.199-0.411,0.221c-0.38,0.055-0.472,0.099-0.538,0.465
		c-0.059,0.327-0.109,0.65-0.088,0.996c0.02,0.307-0.119,0.625-0.324,0.886c-0.115,0.144-0.167,0.294-0.188,0.49
		c-0.028,0.288-0.143,0.57-0.239,0.847c-0.03,0.088-0.109,0.185-0.192,0.226c-0.322,0.163-0.461,0.433-0.5,0.755
		c-0.196,0.137-0.395,0.253-0.566,0.399c-0.281,0.238-0.433,0.271-0.792,0.108c-0.235,0.25-0.502,0.464-0.895,0.379
		c-0.374-0.08-0.642-0.267-0.696-0.675c-0.127-0.021-0.236-0.021-0.329-0.057c-0.186-0.075-0.402-0.118-0.451-0.368
		c-0.008-0.045-0.041-0.098-0.079-0.123c-0.282-0.187-0.503-0.439-0.714-0.697c-0.202-0.249-0.394-0.505-0.578-0.767
		c-0.146-0.21-0.255-0.434-0.486-0.589c-0.227-0.153-0.322-0.429-0.384-0.72c0.266-0.179,0.421-0.415,0.371-0.748
		c0.242-0.422,0.016-0.889,0.129-1.332c0.064-0.248-0.037-0.533-0.038-0.801c-0.002-0.138,0.008-0.316,0.089-0.407
		c0.295-0.332,0.311-0.757,0.443-1.142c0.016-0.047,0.049-0.088,0.083-0.148c0.437,0.057,0.572,0.398,0.726,0.723
		c0.021-0.003,0.053,0.001,0.066-0.012c0.324-0.292,0.66-0.354,1.087-0.178c0.372,0.153,0.389,0.105,0.524-0.259
		C209.077,53.98,209.189,53.709,209.307,53.407z"/>
	<g id="r">
		<path fill-rule="evenodd" clip-rule="evenodd" d="M171.021,58.48c0.109-0.079,0.214-0.164,0.356-0.273
			c-0.056,0.276-0.112,0.503-0.146,0.733c-0.033,0.236-0.041,0.477-0.066,0.714c-0.009,0.078-0.029,0.157-0.057,0.232
			c-0.037,0.111-0.094,0.217-0.126,0.331 M173.01,52.57c0.31-0.113,0.596-0.244,0.571-0.655c-0.005-0.06,0.047-0.123,0.099-0.24
			c-0.225,0.092-0.401,0.164-0.593,0.242c0.137-0.218,0.271-0.289,0.635-0.346c0.262-0.611,0.525-1.222,0.812-1.886
			c-0.426,0.119-0.749,0.403-1.182,0.289c0.381-0.144,0.756-0.302,1.145-0.425c0.165-0.051,0.271-0.134,0.344-0.275
			c0.369-0.708,0.741-1.417,1.106-2.127c0.128-0.247,0.244-0.5,0.367-0.751c0.023,0.007,0.047,0.015,0.072,0.023
			c-0.124,0.475-0.248,0.949-0.373,1.424c0.02,0.009,0.039,0.018,0.059,0.027c0.049-0.037,0.098-0.074,0.146-0.111l-0.008-0.008
			c0.094,0.053,0.148,0.007,0.196-0.075c0.169-0.293,0.347-0.585,0.517-0.879c0.089-0.153,0.172-0.308,0.256-0.464
			c0.178-0.327,0.348-0.658,0.532-0.981c0.213-0.378,0.474-0.734,0.651-1.127c0.24-0.534,0.422-1.093,0.627-1.642
			c0.024-0.066,0.041-0.135,0.074-0.245c-0.153,0.167-0.279,0.285-0.381,0.42c-0.333,0.442-0.631,0.912-0.993,1.327
			c-0.231,0.268-0.3,0.612-0.536,0.885c-0.221,0.253-0.274,0.652-0.396,0.987c-0.113,0.312-0.222,0.626-0.332,0.939l0.009,0.005
			c0.027-0.186,0.05-0.372,0.085-0.557c0.026-0.143,0.143-0.279,0.002-0.427c-0.02-0.018,0.022-0.104,0.049-0.152
			c0.195-0.36,0.396-0.72,0.592-1.082c0.162-0.298,0.322-0.597,0.484-0.896c0.018-0.03,0.025-0.075,0.052-0.091
			c0.463-0.267,0.665-0.76,0.985-1.149c0.321-0.39,0.582-0.828,0.881-1.238c0.103-0.141,0.237-0.256,0.35-0.39
			c0.618-0.738,0.88-1.626,1.05-2.547c0.097-0.52,0.163-1.044,0.239-1.566c0.012-0.08-0.002-0.164,0.016-0.242
			c0.026-0.101,0.046-0.261,0.11-0.286c0.259-0.1,0.143-0.319,0.243-0.493c-0.223-0.003-0.243,0.139-0.3,0.245
			c-0.299,0.56-0.567,1.133-0.779,1.733c-0.158,0.442-0.346,0.876-0.476,1.327c-0.1,0.347-0.126,0.716-0.19,1.075
			c-0.012,0.068-0.044,0.132-0.071,0.207c-0.109-0.272-0.113-0.394-0.071-0.655c0.02-0.125,0.003-0.255,0.003-0.407
			c0.063-0.055,0.191-0.058,0.206-0.234c0.011-0.156-0.063-0.404,0.248-0.434c-0.206-0.404,0.024-0.706,0.161-1.021
			c0.239-0.551,0.496-1.096,0.74-1.646c0.094-0.216,0.174-0.438,0.313-0.641c-0.002,0.056-0.006,0.112-0.006,0.169
			c0.018,0.006,0.035,0.011,0.054,0.017c0.068-0.157,0.161-0.308,0.2-0.472c0.088-0.357,0.324-0.671,0.278-1.069
			c-0.013-0.113,0.101-0.235,0.138-0.36c0.136-0.453,0.363-0.862,0.58-1.281c0.17-0.332,0.258-0.707,0.366-1.068
			c0.164-0.552,0.305-1.112,0.474-1.662c0.274-0.902,0.626-1.775,1.043-2.622c0.135-0.274,0.236-0.564,0.344-0.851
			c0.032-0.088,0.032-0.188,0.047-0.283c-0.025-0.009-0.053-0.017-0.079-0.027c-0.116,0.201-0.234,0.402-0.362,0.621
			c-0.134-0.088-0.225-0.149-0.328-0.215c0.022-0.143,0.049-0.281,0.063-0.42c0.009-0.093,0.033-0.207-0.008-0.277
			c-0.138-0.241-0.122-0.497-0.138-0.756c-0.013-0.206-0.089-0.389-0.329-0.52c-0.099,0.486-0.408,0.83-0.709,1.189
			c-0.253-0.422-0.173-0.894,0.196-1.222c-0.084-0.357-0.084-0.357,0.071-0.752c-0.339-0.099-0.573,0.146-0.851,0.258
			c0.109-0.273,0.295-0.47,0.583-0.483c0.392-0.018,0.792-0.169,1.181,0.035c0.033,0.019,0.09-0.005,0.177-0.011
			c-0.132-0.243-0.249-0.462-0.389-0.721c0.195,0.081,0.346,0.142,0.495,0.204c0.011-0.019,0.021-0.039,0.031-0.058
			c-0.067-0.039-0.136-0.077-0.219-0.125c0.047-0.145,0.073-0.285,0.137-0.407c0.05-0.097,0.145-0.17,0.218-0.254
			c0.042-0.049,0.087-0.096,0.12-0.15c0.034-0.057,0.043-0.135,0.086-0.182c0.063-0.069,0.123-0.036,0.156,0.046
			c0.017-0.018,0.034-0.035,0.051-0.053c0.168-0.186,0.297-0.437,0.619-0.328c0.328-0.23,0.592,0.012,0.873,0.119
			c0.165,0.063,0.327,0.134,0.532,0.218c0.064-0.045,0.189-0.093,0.244-0.182c0.044-0.071-0.004-0.195,0.008-0.294
			c0.015-0.112,0.044-0.224,0.081-0.332c0.037-0.11,0.092-0.214,0.138-0.322c0.04-0.097,0.08-0.194,0.122-0.296
			c0.154-0.062,0.313-0.124,0.512-0.202c-0.068,0.372-0.436,0.558-0.521,0.985c0.12-0.112,0.181-0.167,0.245-0.227
			c0.091,0.01,0.193,0.043,0.286,0.027c0.268-0.046,0.267-0.054,0.37,0.143c0.229,0.035,0.438,0.064,0.646,0.1
			c0.03,0.006,0.067,0.03,0.084,0.056c0.279,0.424,0.679,0.706,1.102,0.968c0.593,0.366,1.07,0.835,1.373,1.488
			c0.238,0.512,0.396,1.029,0.418,1.59c0.003,0.092,0.042,0.181,0.068,0.291c0.108-0.056,0.199-0.104,0.308-0.16
			c0.045,0.137,0.046,0.252-0.072,0.342c-0.277,0.213-0.215,0.52-0.245,0.781c0.159,0.063,0.298,0.118,0.435,0.172
			c0.258,0.035,0.482-0.049,0.682-0.263c0.124-0.133,0.341-0.182,0.55-0.21c-0.317,0.227-0.664,0.423-0.941,0.69
			c-0.28,0.27-0.493,0.609-0.736,0.919c0.017,0.017,0.034,0.035,0.052,0.051c0.044-0.027,0.095-0.048,0.132-0.083
			c0.348-0.329,0.688-0.665,1.044-0.984c0.107-0.098,0.264-0.141,0.38-0.231c0.277-0.216,0.542-0.445,0.808-0.673
			c0.018-0.015,0.006-0.064,0.01-0.106c-0.071,0.007-0.133,0.015-0.201,0.022c0.008-0.035,0.006-0.065,0.02-0.075
			c0.119-0.087,0.24-0.172,0.362-0.258c0.037-0.026,0.077-0.079,0.112-0.077c0.191,0.014,0.223-0.138,0.297-0.277
			c-0.09-0.019-0.178-0.037-0.267-0.055c0.013-0.04,0.013-0.084,0.035-0.105c0.269-0.25,0.54-0.499,0.812-0.747
			c0.044-0.039,0.089-0.091,0.143-0.104c0.729-0.187,1.197-0.814,1.869-1.1c0.126-0.053,0.221-0.174,0.335-0.258
			c0.075-0.056,0.152-0.118,0.237-0.149c0.658-0.235,1.218-0.647,1.811-0.998c0.081-0.048,0.135-0.142,0.184-0.192
			c0.17-0.073,0.32-0.141,0.473-0.204c0.435-0.175,0.831-0.437,1.293-0.545c0.128-0.03,0.301-0.045,0.281-0.25
			c0.447-0.004,0.813-0.176,1.15-0.498c-0.1-0.046-0.179-0.083-0.336-0.155c0.261-0.059,0.447-0.102,0.635-0.142
			c0.265-0.056,0.537-0.085,0.793-0.169c0.177-0.059,0.313-0.062,0.458,0.052c0.064,0.049,0.142,0.088,0.22,0.113
			c0.182,0.055,0.367,0.098,0.559,0.147c-0.052,0.085-0.126,0.208-0.223,0.369c0.273,0,0.5,0,0.793,0
			c-0.103,0.118-0.166,0.19-0.242,0.278c0.098,0.006,0.19,0.013,0.283,0.018c-0.002,0.261-0.002,0.261-0.562,0.66
			c0.102-0.02,0.145-0.028,0.188-0.038c0.058-0.013,0.114-0.035,0.172-0.043c0.093-0.013,0.22-0.061,0.272-0.019
			c0.189,0.152,0.421-0.032,0.623,0.113c0.086,0.063,0.285-0.033,0.427-0.055c0.188,0.366,0.401,0.661,0.78,0.806
			c0.104,0.04,0.213,0.125,0.27,0.217c0.079,0.129,0.158,0.231,0.308,0.271c0.03,0.008,0.065,0.041,0.077,0.07
			c0.119,0.333,0.268,0.68,0.168,1.027c-0.045,0.161-0.262,0.288-0.424,0.396c-0.165,0.111-0.348,0.193-0.448,0.393
			c0.184,0.152,0.371-0.043,0.558,0.033c-0.023,0.201-0.047,0.41-0.076,0.663c-0.349,0.288-0.831,0.418-1.291,0.589
			c-0.363,0.135-0.752,0.2-1.119,0.331c-0.687,0.243-1.379,0.473-2.018,0.839c-0.234,0.133-0.503,0.204-0.741,0.331
			c-0.29,0.154-0.565,0.334-0.844,0.509c-0.835,0.53-1.681,1.047-2.499,1.602c-0.558,0.377-1.074,0.813-1.612,1.215
			c-0.123,0.091-0.255,0.188-0.398,0.226c-0.409,0.107-0.698,0.377-0.991,0.652c-0.066,0.063-0.143,0.115-0.274,0.139
			c0.056-0.142,0.11-0.284,0.179-0.458c-0.274,0.036-0.43,0.245-0.639,0.354c-0.084,0.044-0.172,0.083-0.278,0.098
			c0.348-0.497,0.811-0.889,1.138-1.389c-0.018-0.017-0.036-0.035-0.055-0.051c-0.361,0.324-0.719,0.653-1.084,0.974
			c-0.363,0.317-0.729,0.631-1.102,0.936c-0.192,0.157-0.34,0.356-0.516,0.523c-0.396,0.379-0.637,0.875-1.016,1.265
			c-0.38,0.388-0.77,0.767-1.134,1.169c-0.292,0.323-0.549,0.677-0.829,1.01c-0.207,0.248-0.427,0.483-0.637,0.728
			c-0.104,0.121-0.195,0.251-0.254,0.418c0.09-0.075,0.178-0.15,0.268-0.226c0.017,0.01,0.034,0.02,0.051,0.031
			c-0.022,0.067-0.037,0.188-0.071,0.194c-0.175,0.027-0.202,0.176-0.278,0.289c-0.456,0.684-0.902,1.375-1.384,2.041
			c-0.159,0.222-0.396,0.405-0.632,0.551c-0.273,0.168-0.512,0.374-0.766,0.564c-0.532,0.397-0.846,0.936-1.084,1.53
			c-0.056,0.139-0.056,0.318-0.027,0.469c0.014,0.078,0.144,0.135,0.256,0.23c-0.219,0.357-0.453,0.732-0.68,1.112
			c-0.114,0.191-0.207,0.397-0.324,0.587c-0.367,0.591-0.76,1.167-1.107,1.767c-0.463,0.793-1.154,1.406-1.646,2.173
			c-0.012,0.02-0.037,0.034-0.044,0.055c-0.147,0.466-0.461,0.871-0.545,1.357c-0.099,0.573-0.338,1.076-0.656,1.552
			c-0.149,0.223-0.256,0.475-0.403,0.698c-0.222,0.334-0.428,0.691-0.708,0.97c-0.272,0.273-0.427,0.617-0.666,0.905
			c-0.215,0.26-0.148,0.608-0.262,0.902c-0.204,0.536-0.28,1.119-0.644,1.596c-0.099,0.13-0.104,0.329-0.158,0.514
			c-0.076,0.006-0.162,0.012-0.301,0.023c0.081,0.105,0.134,0.173,0.182,0.236c-0.024,0.039-0.035,0.07-0.051,0.074
			c-0.076,0.016-0.202,0.001-0.222,0.04c-0.114,0.232-0.362,0.362-0.433,0.627c-0.054,0.203-0.143,0.399-0.244,0.584
			c-0.044,0.079-0.152,0.137-0.242,0.174c-0.036,0.015-0.106-0.052-0.19-0.1c-0.223,0.218-0.351,0.527-0.495,0.814
			c-0.125,0.246-0.154,0.541-0.258,0.8c-0.146,0.355-0.141,0.729-0.17,1.097c-0.02,0.213-0.112,0.404-0.241,0.497
			c-0.187,0.136-0.225,0.3-0.218,0.477c0.012,0.242-0.109,0.423-0.195,0.624c-0.058,0.135-0.148,0.173-0.28,0.089
			c-0.146-0.094-0.296-0.185-0.459-0.286c-0.065,0.131-0.128,0.262-0.177,0.362c-0.18-0.031-0.326-0.057-0.537-0.093
			c-0.044-0.206-0.1-0.471-0.163-0.778c-0.12,0.08-0.213,0.143-0.318,0.214c-0.051-0.033-0.106-0.069-0.16-0.104
			c-0.336,0.272-0.695,0.484-1.159,0.475c-0.128-0.47,0.016-0.885,0.138-1.3c0.073-0.251,0.081-0.451-0.009-0.747
			c-0.111,0.093-0.225,0.189-0.355,0.299c-0.155-0.316-0.293-0.594-0.445-0.912c-0.066,0.296-0.114,0.536-0.178,0.771
			c-0.025,0.099-0.074,0.202-0.14,0.281c-0.113,0.14-0.306,0.169-0.399,0.037c-0.188-0.264-0.384-0.541-0.277-0.901
			c0.076-0.257,0.162-0.51,0.236-0.768c0.024-0.089,0.047-0.19,0.032-0.28c-0.06-0.379,0.063-0.704,0.241-1.032
			c0.133-0.246,0.205-0.524,0.301-0.79c0.191-0.532,0.532-0.927,0.588-1.644C172.647,54.741,173.01,52.57,173.01,52.57z
			 M173.001,52.724 M173.354,52.585c-0.168,0.037-0.301,0.031-0.24,0.238 M173.084,53.526 M173.16,54.264
			c-0.165-0.106-0.146-0.203-0.072-0.313c0.079-0.118,0.155-0.238,0.212-0.367c0.111-0.256,0.221-0.516,0.165-0.811 M174.381,50.406
			c0.054,0.006,0.141,0.038,0.157,0.015c0.174-0.238,0.358-0.474,0.362-0.803c-0.084,0.032-0.158,0.078-0.194,0.145
			C174.59,49.973,174.489,50.191,174.381,50.406c-0.016,0.104-0.032,0.208-0.056,0.357C174.523,50.63,174.471,50.519,174.381,50.406
			z M181.328,38.016c0.022,0.009,0.044,0.017,0.066,0.026c0.065-0.105,0.139-0.205,0.195-0.314c0.192-0.377,0.382-0.756,0.569-1.137
			c0.267-0.543,0.53-1.086,0.792-1.632c0.036-0.075,0.069-0.155-0.048-0.205c-0.021-0.009-0.042-0.074-0.031-0.103
			c0.066-0.188,0.009-0.448,0.3-0.509c0.045-0.01,0.109-0.084,0.109-0.131c0.005-0.23,0.205-0.357,0.274-0.551
			c0.035-0.099,0.115-0.211,0.093-0.296c-0.054-0.206,0.069-0.323,0.162-0.463c0.031-0.046,0.071-0.091,0.09-0.142
			c0.178-0.515,0.354-1.032,0.548-1.598c-0.229,0.075-0.262,0.233-0.328,0.36c-0.043,0.083-0.071,0.175-0.124,0.25
			c-0.199,0.28-0.38,0.578-0.616,0.824c-0.412,0.427-0.518,1.069-1.022,1.424c-0.018,0.012-0.026,0.039-0.035,0.06
			c-0.093,0.238-0.197,0.472-0.278,0.714c-0.272,0.827-0.535,1.658-0.636,2.527C181.374,37.417,181.354,37.717,181.328,38.016z
			 M179.79,41.758c0.082-0.346,0.425-0.534,0.432-0.907c-0.282,0.306-0.543,0.627-0.794,0.955c-0.042,0.055-0.04,0.142-0.062,0.223
			c0.079,0,0.129,0,0.175,0c-0.162,0.228-0.341,0.43-0.462,0.663c-0.135,0.255-0.218,0.536-0.322,0.807
			c0.115-0.035,0.183-0.096,0.229-0.17c0.219-0.345,0.43-0.696,0.646-1.042c0.111-0.179,0.234-0.352,0.348-0.531
			c0.014-0.02-0.004-0.061-0.012-0.108C179.901,41.688,179.846,41.723,179.79,41.758z M201.611,21.466
			c-0.237-0.074-0.476-0.104-0.716,0.03c-0.267,0.149-0.545,0.271-0.811,0.42c-0.077,0.043-0.127,0.136-0.212,0.233
			c0.277,0.037,0.469-0.015,0.661-0.124C200.887,21.825,201.254,21.649,201.611,21.466z M183.538,30.796
			c0.093-0.16,0.194-0.315,0.275-0.481c0.084-0.167,0.157-0.341,0.217-0.519c0.064-0.189,0.114-0.384,0.16-0.578
			c0.039-0.164,0.168-0.317,0.072-0.505C183.962,29.375,183.648,30.031,183.538,30.796z M184.095,30.454
			c0.02,0.003,0.037,0.006,0.057,0.011c0.107-0.264,0.222-0.527,0.323-0.793c0.153-0.402,0.304-0.803,0.44-1.209
			c0.025-0.078,0.065-0.225-0.135-0.223c-0.014,0.04-0.029,0.082-0.041,0.125c-0.154,0.567-0.279,1.142-0.57,1.665
			C184.104,30.148,184.119,30.312,184.095,30.454z M196.236,24.49c0.369-0.234,0.734-0.465,1.099-0.697
			c-0.012-0.024-0.022-0.048-0.034-0.073c-0.236,0.103-0.474,0.2-0.706,0.311c-0.104,0.049-0.194,0.126-0.295,0.185
			C196.187,24.283,196.172,24.369,196.236,24.49z M184.438,30.873c0.074-0.255,0.11-0.529,0.235-0.758
			c0.129-0.236,0.181-0.468,0.174-0.725C184.621,29.859,184.443,30.341,184.438,30.873z M195.988,24.733
			c-0.487,0.142-0.554,0.189-0.537,0.386C195.644,25.017,195.851,24.948,195.988,24.733z M175.78,48.609
			c-0.021-0.012-0.043-0.025-0.065-0.038c-0.102,0.19-0.203,0.38-0.335,0.627C175.653,49.038,175.688,48.806,175.78,48.609z
			 M186.034,21.51c0.08,0.207,0.204,0.212,0.36,0.123C186.312,21.494,186.237,21.358,186.034,21.51z M183.013,32.464
			c-0.031-0.007-0.063-0.016-0.092-0.023c-0.053,0.163-0.105,0.325-0.159,0.489C182.853,32.775,183.111,32.687,183.013,32.464z
			 M175.117,50.167c-0.024-0.016-0.049-0.031-0.073-0.048c-0.117,0.114-0.162,0.253-0.082,0.441
			C175.014,50.43,175.065,50.298,175.117,50.167z M201.539,21.802c0.01,0.026,0.019,0.052,0.028,0.078
			c0.076-0.029,0.152-0.059,0.229-0.087c-0.007-0.023-0.015-0.045-0.022-0.067C201.695,21.75,201.616,21.776,201.539,21.802z
			 M202.415,21.44c-0.011-0.026-0.022-0.053-0.034-0.079c-0.087,0.034-0.173,0.067-0.258,0.101c0.009,0.024,0.019,0.049,0.028,0.074
			C202.239,21.504,202.328,21.472,202.415,21.44z M174.523,51.266c0.022-0.013,0.036-0.017,0.04-0.024
			c0.026-0.063,0.051-0.126,0.074-0.191c0.002-0.006-0.013-0.018-0.02-0.028c-0.032,0.047-0.069,0.089-0.092,0.139
			C174.514,51.188,174.523,51.224,174.523,51.266z M175.214,49.514c0.023,0.014,0.049,0.031,0.072,0.047
			c0.026-0.073,0.054-0.146,0.081-0.218c-0.017-0.007-0.033-0.014-0.05-0.021C175.283,49.386,175.247,49.449,175.214,49.514z
			 M190.544,23.074c0.033-0.042,0.076-0.077,0.07-0.09c-0.018-0.036-0.054-0.063-0.083-0.092c-0.025,0.028-0.075,0.061-0.072,0.086
			C190.463,23.009,190.509,23.037,190.544,23.074z M185.04,28.995c-0.026-0.016-0.053-0.033-0.078-0.049
			c-0.023,0.063-0.047,0.125-0.068,0.189c0.021,0.007,0.04,0.015,0.06,0.023C184.981,29.104,185.011,29.05,185.04,28.995z"/>
	</g>
	<g id="e">
		<g>
			<path d="M127.677,56.35c-0.002,0.005-0.002,0.01-0.003,0.017c0.006,0.005,0.013,0.01,0.019,0.015
				c-0.002-0.008-0.006-0.016-0.009-0.023C127.681,56.355,127.68,56.352,127.677,56.35z"/>
			<path d="M127.692,56.382c0.1,0.322,0.288,0.614,0.552,0.822C128.135,56.845,127.938,56.597,127.692,56.382z"/>
			<path d="M128.338,57.542c0.267,0.366,0.499,0.683,0.729,1c0.021-0.018,0.04-0.037,0.061-0.056
				c-0.117-0.168-0.236-0.335-0.352-0.505C128.67,57.824,128.63,57.604,128.338,57.542z"/>
			<path d="M127.474,56.092c0.066,0.086,0.136,0.172,0.203,0.258C127.706,56.206,127.619,56.13,127.474,56.092z"/>
			<path d="M138.05,26.348c-0.085-0.05-0.099-0.063-0.106-0.062c-0.15,0.044-0.3,0.088-0.449,0.135
				c-0.353,0.113-0.353,0.114-0.323,0.479C137.49,26.786,137.63,26.41,138.05,26.348z"/>
			<path d="M143.603,56.735c0.166-0.049,0.332-0.101,0.498-0.151c-0.013-0.029-0.023-0.058-0.037-0.087
				c-0.163,0.05-0.326,0.1-0.488,0.147C143.583,56.675,143.593,56.706,143.603,56.735z"/>
			<path d="M144.479,56.457c0.27-0.103,0.475-0.182,0.679-0.261C144.898,56.146,144.654,56.112,144.479,56.457z"/>
			<path d="M145.242,54.194c0.014,0.018,0.028,0.037,0.042,0.053c0.052-0.037,0.104-0.076,0.157-0.115
				c-0.019-0.019-0.038-0.039-0.057-0.058C145.337,54.114,145.289,54.155,145.242,54.194z"/>
			<path d="M144.175,53.932c-0.104,0.092-0.166,0.149-0.229,0.204C144.044,54.142,144.147,54.151,144.175,53.932z"/>
			<path d="M126.221,51.971c0.043,0.434,0.134,0.599,0.172,0.903c0.036,0.289,0.019,0.29,0.158,0.536
				c0.066-0.191-0.132-0.403,0.061-0.65c0.011,0.151,0.032,0.246,0.024,0.339c-0.083,0.966-0.08,1.13,0.065,1.523
				c0.152,0.411,0.185,0.453,0.318,0.69c0.058,0.102,0.148,0.12,0.237,0.164c0.168,0.078,0.362,0.094,0.578,0.144
				c0.412,0.827,0.896,1.663,1.52,2.41c0.225,0.27,0.482,0.513,0.701,0.786c0.181,0.226,0.368,0.409,0.656,0.501
				c0.172,0.055,0.313,0.212,0.461,0.334c0.104,0.084,0.179,0.226,0.295,0.274c0.415,0.174,0.759,0.502,1.226,0.568
				c0.059,0.01,0.111,0.063,0.173,0.099c-0.053,0.045-0.077,0.066-0.106,0.091c0.098,0.045,0.189,0.077,0.269,0.128
				c0.389,0.246,0.805,0.408,1.258,0.49c0.204,0.038,0.41,0.099,0.595,0.188c0.09,0.043,0.152,0.05,0.249,0.053
				c0.481,0.017,0.966,0.057,1.445,0.107c0.158,0.017,0.306,0.058,0.455,0.166c0.168,0.12,0.415,0.126,0.629,0.187
				c0.667,0.188,1.349,0.232,2.033,0.143c0.284-0.038,0.557-0.094,0.824-0.25c0.227-0.132,0.543-0.106,0.819-0.156
				c0.616-0.11,1.233-0.208,1.844-0.339c0.776-0.168,1.55-0.354,2.319-0.552c0.565-0.145,1.17-0.178,1.67-0.536
				c0.028-0.021,0.064-0.035,0.1-0.043c0.283-0.072,0.568-0.137,0.848-0.217c0.124-0.036,0.24-0.099,0.361-0.149
				c-1.042,0.229-2.072,0.478-3.113,0.698c0.106-0.091,0.227-0.134,0.348-0.177c0.161-0.058,0.353-0.08,0.477-0.183
				c0.239-0.198,0.508-0.323,0.794-0.423c0.495-0.174,0.995-0.335,1.487-0.519c0.678-0.255,1.365-0.485,2.025-0.783
				c0.43-0.193,0.695-0.502,1.185-0.57c-0.018-0.167,0.096-0.333,0.265-0.424c0.223-0.223,0.464-0.425,0.696-0.635
				c0.1-0.091,0.419-0.282,0.419-0.393v0.029c-0.002-0.01,0.001-0.024,0.008-0.038v0.029c-0.001-0.009,0.004-0.022,0.01-0.038v0.029
				c-0.001-0.009,0.002-0.022,0.01-0.038v0.029c-0.002-0.01,0.002-0.022,0.01-0.038v0.029c-0.002-0.011,0.001-0.023,0.01-0.038v0.03
				c-0.002-0.011,0.001-0.023,0.01-0.038v0.029c-0.002-0.01,0.001-0.023,0.008-0.038v0.03c-0.002-0.011,0.003-0.023,0.01-0.038
				v0.028c-0.002-0.01,0.002-0.022,0.01-0.036v0.028c-0.002-0.011,0.002-0.022,0.01-0.037v0.027c-0.002-0.01,0.002-0.02,0.008-0.035
				v0.026c-0.001-0.009,0.004-0.021,0.01-0.034v0.026c0-0.009,0.003-0.021,0.01-0.035v0.026c-0.002-0.008,0.003-0.02,0.01-0.033
				v0.024c0-0.008,0.003-0.02,0.01-0.034v0.025c-0.002-0.009,0.002-0.02,0.01-0.033v0.023c-0.002-0.007,0.001-0.019,0.01-0.031
				v0.023c-0.002-0.008,0.002-0.019,0.008-0.031v0.022c0-0.007,0.004-0.019,0.01-0.03v0.022c-0.002-0.007,0.003-0.018,0.01-0.03
				v0.022c-0.002-0.009,0.002-0.019,0.01-0.031v0.021c-0.002-0.007,0.003-0.018,0.008-0.029v0.02c0-0.007,0.004-0.017,0.011-0.029
				v0.02c-0.001-0.006,0.002-0.016,0.009-0.029v0.021c0-0.007,0.003-0.018,0.01-0.028v0.019c-0.002-0.007,0.004-0.017,0.01-0.027
				v0.018c-0.002-0.006,0.003-0.017,0.01-0.027v0.019c-0.002-0.007,0.002-0.017,0.01-0.027v0.018
				c-0.002-0.006,0.002-0.015,0.009-0.026v0.017c-0.001-0.005,0.003-0.015,0.009-0.024v0.017c0-0.007,0.003-0.015,0.01-0.026v0.016
				c-0.002-0.005,0.003-0.013,0.01-0.024v0.016c-0.002-0.005,0.003-0.014,0.01-0.023v0.014c-0.002-0.005,0.003-0.013,0.008-0.022
				v0.014c0-0.005,0.004-0.014,0.01-0.023v0.015c0-0.005,0.004-0.013,0.01-0.022v0.013c0-0.005,0.004-0.012,0.01-0.022v0.014
				c0-0.005,0.004-0.012,0.01-0.021v0.012c-0.002-0.004,0.003-0.012,0.009-0.02v0.012c-0.001-0.005,0.004-0.012,0.01-0.02v0.012
				c-0.001-0.006,0.004-0.013,0.009-0.02v0.011c0-0.005,0.003-0.011,0.01-0.02v0.01c-0.002-0.003,0.004-0.01,0.008-0.018v0.009
				c0-0.003,0.005-0.009,0.011-0.016v0.007c0-0.003,0.005-0.009,0.009-0.017v0.008c0-0.003,0.006-0.009,0.011-0.015v0.006
				c-0.001-0.003,0.004-0.008,0.009-0.014v0.005c0-0.002,0.005-0.008,0.01-0.009c0-0.002,0.006-0.007,0.01-0.008
				c0-0.002,0.006-0.007,0.011-0.013c0.002-0.002,0.005-0.002,0.007-0.003c-0.003,0.001-0.006,0.001-0.002-0.002
				c0.002-0.001,0.006-0.003,0.01-0.005c-0.003,0-0.005,0.001-0.008,0.002c0.006-0.002,0.011-0.005,0.014-0.008
				c0.003-0.002,0.007-0.005,0.011-0.007c0.002,0,0.003-0.002,0.003-0.004c0.002,0,0.004-0.002,0.006-0.003
				c0.002,0,0.004-0.002,0.009-0.006c0.002-0.001,0.003-0.003,0.008-0.008c0.003,0,0.005-0.002,0.007-0.006
				c0.004-0.001,0.008-0.004,0.008-0.006c0.005-0.001,0.009-0.005,0.012-0.007c0.003-0.004,0.007-0.005,0.008-0.009
				c0.005-0.001,0.008-0.004,0.011-0.006c0.004-0.002,0.006-0.004,0.009-0.008c0.003-0.002,0.007-0.004,0.01-0.007
				c0.003-0.001,0.007-0.003,0.01-0.006s0.007-0.005,0.01-0.01c0.003-0.001,0.006-0.003,0.008-0.006
				c0.004-0.002,0.008-0.003,0.011-0.007c0.003-0.002,0.007-0.005,0.009-0.009c0.004-0.001,0.007-0.003,0.01-0.007
				c0.003-0.001,0.007-0.003,0.01-0.006c0.003-0.002,0.006-0.005,0.009-0.008c0.004-0.002,0.007-0.004,0.009-0.007
				c0.005-0.002,0.008-0.003,0.01-0.007c0.004-0.003,0.008-0.005,0.011-0.008c0.003-0.002,0.007-0.004,0.009-0.007
				c0.003-0.002,0.007-0.004,0.009-0.006c0.004-0.003,0.007-0.006,0.01-0.009s0.007-0.004,0.01-0.007
				c0.003-0.002,0.007-0.003,0.009-0.008c0.004-0.001,0.007-0.004,0.01-0.007c0.004-0.002,0.007-0.004,0.01-0.008
				c0.002-0.001,0.006-0.003,0.009-0.006c0.004-0.002,0.007-0.006,0.009-0.009c0.005-0.002,0.008-0.003,0.011-0.007
				c0.004-0.001,0.007-0.004,0.009-0.006c0.003-0.002,0.007-0.005,0.01-0.008s0.006-0.004,0.009-0.008
				c0.004-0.001,0.007-0.003,0.011-0.006s0.006-0.006,0.008-0.009c0.004-0.002,0.008-0.004,0.011-0.007
				c0.003-0.001,0.007-0.003,0.009-0.007c0.004-0.003,0.008-0.005,0.009-0.009c0.005-0.001,0.007-0.003,0.01-0.006
				c0.004-0.002,0.007-0.004,0.01-0.007c0.004-0.003,0.007-0.006,0.009-0.009c0.004-0.001,0.008-0.003,0.01-0.006
				c0.004-0.002,0.008-0.003,0.009-0.007c0.005-0.003,0.009-0.006,0.011-0.009c0.003-0.002,0.006-0.004,0.009-0.007
				c0.004-0.001,0.007-0.004,0.01-0.006c0.004-0.004,0.007-0.006,0.009-0.009c0.004-0.002,0.008-0.004,0.01-0.007
				c0.004-0.002,0.006-0.003,0.01-0.007c0.004-0.003,0.008-0.005,0.009-0.009c0.005-0.001,0.009-0.003,0.01-0.006
				c0.004-0.002,0.007-0.003,0.01-0.008c0.004-0.002,0.007-0.005,0.01-0.008c0.004-0.002,0.007-0.003,0.008-0.007
				c0.004-0.001,0.009-0.004,0.011-0.007c0.004-0.002,0.008-0.005,0.01-0.008c0.003-0.002,0.006-0.003,0.01-0.007
				c0.004-0.001,0.006-0.004,0.008-0.007c0.004-0.003,0.008-0.005,0.011-0.008c0.002-0.001,0.007-0.003,0.009-0.007
				c0.004-0.001,0.008-0.003,0.01-0.008c0.004-0.002,0.006-0.004,0.009-0.008c0.004-0.001,0.007-0.003,0.011-0.006
				c0.002-0.002,0.006-0.004,0.008-0.008c0.004-0.002,0.008-0.005,0.011-0.008c0.003-0.001,0.007-0.003,0.008-0.006
				c0.005-0.001,0.009-0.005,0.01-0.008c0.004-0.002,0.007-0.005,0.01-0.008c0.004-0.002,0.007-0.003,0.01-0.007
				c0.004-0.001,0.007-0.005,0.01-0.008c0.003-0.002,0.007-0.004,0.009-0.006c0.004-0.002,0.008-0.004,0.01-0.008
				c0.004-0.001,0.008-0.003,0.009-0.007c0.005-0.003,0.009-0.005,0.01-0.009c0.004-0.001,0.007-0.003,0.01-0.006
				c0.004-0.002,0.007-0.004,0.01-0.008c0.004-0.002,0.007-0.005,0.009-0.008c0.004-0.001,0.008-0.003,0.009-0.006
				c0.004-0.002,0.009-0.005,0.011-0.008c0.002-0.002,0.006-0.005,0.009-0.008c0.005-0.002,0.008-0.003,0.009-0.007
				c0.005-0.002,0.008-0.005,0.01-0.008c0.004-0.002,0.008-0.004,0.009-0.007c0.004-0.002,0.007-0.004,0.011-0.007
				c0.004-0.002,0.008-0.005,0.009-0.008c0.004-0.002,0.007-0.004,0.01-0.008c0.004-0.001,0.007-0.003,0.009-0.006
				c0.004-0.003,0.006-0.004,0.011-0.008c0.004-0.002,0.007-0.005,0.008-0.007c0.004-0.002,0.009-0.004,0.012-0.007
				c0.003-0.002,0.005-0.005,0.008-0.008c0.004-0.002,0.007-0.005,0.01-0.007c0.005-0.003,0.008-0.004,0.009-0.009
				c0.004-0.001,0.008-0.004,0.011-0.006c0.004-0.002,0.005-0.005,0.009-0.007s0.007-0.004,0.01-0.009
				c0.003-0.001,0.007-0.003,0.008-0.006c0.005-0.003,0.008-0.005,0.012-0.008c0.002-0.002,0.006-0.004,0.009-0.008
				c0.004-0.002,0.007-0.004,0.009-0.007c0.004-0.002,0.007-0.004,0.009-0.007c0.004-0.002,0.008-0.004,0.012-0.008
				c0.002-0.002,0.005-0.004,0.008-0.007c0.004-0.002,0.008-0.005,0.011-0.007c0.003-0.003,0.006-0.004,0.008-0.008
				c0.004-0.002,0.008-0.004,0.011-0.007c0.003-0.003,0.006-0.005,0.009-0.008c0.004-0.002,0.007-0.004,0.009-0.008
				c0.004-0.002,0.008-0.004,0.01-0.006c0.004-0.003,0.007-0.005,0.01-0.008c0.004-0.002,0.005-0.005,0.01-0.008
				c0.004-0.002,0.007-0.003,0.009-0.007c0.003-0.002,0.007-0.005,0.01-0.007c0.004-0.003,0.007-0.004,0.01-0.008
				c0.004-0.002,0.006-0.004,0.009-0.007c0.004-0.002,0.008-0.005,0.01-0.007c0.003-0.003,0.006-0.005,0.009-0.009
				c0.004-0.001,0.008-0.003,0.01-0.006c0.004-0.002,0.007-0.005,0.01-0.007c0.004-0.002,0.007-0.005,0.008-0.008
				c0.005-0.001,0.008-0.004,0.011-0.007c0.004-0.002,0.007-0.005,0.01-0.007c0.003-0.003,0.007-0.005,0.01-0.008
				c0.003-0.001,0.007-0.004,0.008-0.006c0.004-0.002,0.007-0.005,0.012-0.008c0.003-0.003,0.005-0.005,0.008-0.008
				c0.004-0.002,0.007-0.004,0.011-0.007c0.004-0.002,0.006-0.005,0.008-0.007c0.004-0.003,0.007-0.005,0.011-0.008
				c0.003-0.001,0.006-0.004,0.009-0.006c0.004-0.003,0.007-0.005,0.01-0.008s0.006-0.005,0.009-0.008
				c0.004-0.001,0.007-0.003,0.01-0.006c0.003-0.003,0.007-0.005,0.009-0.008c0.004-0.003,0.008-0.005,0.01-0.008
				c0.004-0.001,0.007-0.004,0.01-0.007c0.004-0.002,0.007-0.005,0.01-0.008c0.003-0.002,0.006-0.004,0.009-0.007
				c0.003-0.002,0.006-0.004,0.01-0.007c0.003-0.002,0.006-0.005,0.009-0.008c0.004-0.003,0.008-0.004,0.01-0.008
				c0.004-0.001,0.006-0.003,0.01-0.006s0.006-0.005,0.01-0.009c0.002-0.002,0.006-0.003,0.009-0.007
				c0.003-0.001,0.007-0.004,0.01-0.006c0.003-0.003,0.006-0.005,0.01-0.009c0.003-0.002,0.007-0.004,0.009-0.007
				c0.004-0.001,0.006-0.004,0.009-0.006c0.005-0.002,0.008-0.005,0.01-0.008c0.003-0.002,0.006-0.004,0.011-0.007
				c0.004-0.002,0.006-0.004,0.008-0.007c0.004-0.002,0.007-0.006,0.01-0.008c0.004-0.002,0.007-0.004,0.01-0.007
				c0.004-0.001,0.006-0.004,0.01-0.007c0.004-0.002,0.006-0.005,0.009-0.008s0.007-0.004,0.01-0.008
				c0.003-0.001,0.006-0.004,0.009-0.006c0.004-0.003,0.007-0.006,0.011-0.008c0.003-0.002,0.006-0.004,0.009-0.008
				c0.004-0.001,0.007-0.004,0.011-0.007c0.003-0.002,0.005-0.005,0.008-0.009c0.003-0.001,0.006-0.003,0.011-0.006
				c0.002-0.002,0.006-0.004,0.008-0.007c0.004-0.002,0.008-0.006,0.012-0.008c0.002-0.002,0.004-0.004,0.008-0.008
				c0.004-0.001,0.007-0.004,0.009-0.006c0.005-0.003,0.007-0.005,0.01-0.009c0.003-0.002,0.007-0.003,0.01-0.007
				c0.003-0.001,0.006-0.004,0.01-0.006c0.003-0.003,0.007-0.006,0.009-0.009c0.004-0.002,0.006-0.004,0.01-0.007
				c0.004-0.001,0.007-0.004,0.01-0.006c0.002-0.003,0.005-0.005,0.01-0.008c0.004-0.002,0.007-0.004,0.009-0.007
				c0.003-0.002,0.007-0.004,0.009-0.007c0.004-0.003,0.007-0.006,0.011-0.009c0.003-0.001,0.005-0.003,0.009-0.006
				c0.004-0.001,0.008-0.004,0.009-0.007c0.003-0.003,0.007-0.006,0.01-0.008c0.003-0.003,0.007-0.004,0.009-0.008
				c0.004-0.001,0.007-0.004,0.011-0.006c0.003-0.003,0.007-0.006,0.009-0.009c0.004-0.002,0.007-0.004,0.01-0.007
				c0.004-0.002,0.006-0.004,0.009-0.007c0.003-0.003,0.006-0.006,0.01-0.008s0.007-0.004,0.01-0.007
				c0.003-0.002,0.006-0.004,0.01-0.008c0.001-0.002,0.006-0.004,0.009-0.007c0.004-0.002,0.006-0.004,0.01-0.007
				c0.004-0.002,0.007-0.005,0.01-0.008c0.002-0.002,0.006-0.005,0.009-0.008c0.003-0.002,0.006-0.003,0.01-0.007
				c0.003-0.001,0.006-0.004,0.01-0.007c0.003-0.002,0.006-0.005,0.009-0.007c0.002-0.003,0.007-0.005,0.01-0.008
				c0.002-0.001,0.005-0.004,0.009-0.007s0.007-0.005,0.01-0.009c0.003-0.001,0.006-0.003,0.01-0.006
				c0.003-0.002,0.006-0.004,0.01-0.008c0.003-0.002,0.005-0.005,0.009-0.007s0.007-0.004,0.009-0.007
				c0.003-0.001,0.007-0.005,0.011-0.007c0.002-0.002,0.006-0.005,0.009-0.008c0.003-0.002,0.005-0.003,0.01-0.007
				c0.003-0.001,0.007-0.005,0.009-0.007s0.007-0.005,0.01-0.008c0.003-0.002,0.007-0.004,0.01-0.007
				c0.002-0.001,0.005-0.005,0.009-0.007c0.004-0.003,0.008-0.005,0.009-0.008c0.004-0.002,0.007-0.004,0.011-0.007
				c0.003-0.002,0.007-0.005,0.009-0.007c0.003-0.002,0.006-0.005,0.01-0.008c0.003-0.001,0.007-0.003,0.008-0.006
				c0.004-0.002,0.008-0.005,0.012-0.008c0.002-0.002,0.005-0.005,0.009-0.007c0.003-0.003,0.006-0.004,0.01-0.008
				c0.003-0.002,0.006-0.005,0.009-0.007c0.002-0.002,0.007-0.005,0.01-0.008c0.002-0.002,0.006-0.004,0.009-0.007
				c0.004-0.002,0.007-0.005,0.011-0.007c0.002-0.003,0.006-0.005,0.009-0.008c0.003-0.001,0.006-0.003,0.01-0.007
				c0.002-0.003,0.006-0.005,0.009-0.008c0.003-0.002,0.006-0.005,0.01-0.007c0.002-0.003,0.007-0.004,0.01-0.008
				c0.002-0.002,0.006-0.004,0.009-0.007c0.003-0.002,0.005-0.005,0.01-0.008c0.003-0.002,0.006-0.003,0.009-0.005
				c-0.012-0.029-0.023-0.055-0.035-0.083c-0.108,0.03-0.225,0.044-0.322,0.096c-0.244,0.127-0.493,0.232-0.748,0.328
				c0.003-0.001,0.005-0.003,0.007-0.005c-0.001,0-0.003,0-0.003,0c0.003-0.003,0.006-0.005,0.009-0.009l-0.002,0
				c0.002-0.004,0.005-0.007,0.01-0.011c-0.002,0.001-0.003,0.002-0.003,0.002c0.003-0.003,0.006-0.007,0.01-0.01
				c-0.002,0.001-0.003,0.002-0.006,0.002c0.006-0.003,0.009-0.008,0.009-0.009c0.004-0.003,0.007-0.007,0.01-0.01
				c-0.002,0.001-0.003,0.002-0.005,0.002c0.005-0.004,0.009-0.007,0.013-0.01c-0.003,0-0.004,0.001-0.004,0.001
				c0.004-0.004,0.007-0.007,0.011-0.011c-0.002,0-0.004,0.001-0.006,0.001c0.005-0.003,0.009-0.006,0.013-0.01
				c-0.003,0-0.004,0.001-0.006,0.002c0.004-0.003,0.009-0.007,0.013-0.011c-0.002,0-0.004,0-0.004,0
				c0.002-0.002,0.008-0.005,0.011-0.008c-0.001,0-0.003,0-0.005,0.001c0.004-0.004,0.008-0.006,0.012-0.009
				c-0.002,0-0.004,0-0.006,0.001c0.004-0.004,0.009-0.007,0.012-0.01c-0.002,0-0.003,0-0.004,0.001
				c0.002-0.003,0.008-0.005,0.011-0.009c0,0-0.003,0-0.004,0c0.003-0.003,0.007-0.005,0.011-0.01c0,0-0.002,0-0.005,0.001
				c0.004-0.003,0.008-0.006,0.012-0.01c0,0-0.002,0.001-0.005,0.002c0.005-0.004,0.008-0.006,0.012-0.01l-0.002,0.001
				c0.001-0.004,0.005-0.007,0.009-0.01c-0.001,0-0.003,0-0.004,0c0.003-0.003,0.006-0.006,0.011-0.01
				c-0.002,0.001-0.003,0.002-0.005,0.002c0.004-0.004,0.007-0.008,0.012-0.011c-0.002,0.001-0.003,0.001-0.005,0.001
				c0.005-0.003,0.008-0.006,0.012-0.009c-0.002,0-0.002,0.001-0.004,0.001c0.003-0.003,0.007-0.006,0.01-0.01
				c-0.001,0.001-0.002,0.001-0.002,0.001c0.002-0.004,0.006-0.007,0.01-0.011c-0.002,0.001-0.004,0.002-0.004,0.002
				c0.004-0.003,0.007-0.007,0.01-0.01c-0.001,0.001-0.003,0.001-0.003,0.001c0.003-0.003,0.007-0.006,0.007-0.008
				c0.003-0.003,0.007-0.007,0.01-0.01c-0.002,0-0.002,0.001-0.003,0.002c0.003-0.003,0.007-0.007,0.011-0.01
				c-0.002,0-0.003,0-0.005,0c0.005-0.004,0.009-0.006,0.011-0.01c-0.001,0-0.002,0.001-0.002,0.001
				c0.002-0.003,0.007-0.006,0.005-0.008c0.005-0.003,0.008-0.006,0.012-0.01c-0.002,0-0.004,0-0.005,0.001
				c0.004-0.003,0.008-0.006,0.012-0.01c-0.002,0.001-0.004,0.001-0.006,0.002c0.005-0.003,0.008-0.007,0.012-0.01
				c-0.002,0.001-0.004,0.001-0.005,0.001c0.003-0.004,0.01-0.007,0.013-0.011c-0.002,0.001-0.003,0.001-0.006,0.001
				c0.006-0.004,0.01-0.006,0.013-0.009c-0.002,0.001-0.003,0.001-0.005,0.001c0.003-0.003,0.008-0.006,0.012-0.011
				c-0.002,0.001-0.004,0.001-0.006,0.001c0.005-0.003,0.008-0.006,0.013-0.01c-0.001,0.001-0.003,0.002-0.005,0.002
				c0.004-0.003,0.008-0.006,0.007-0.008c0.004-0.003,0.007-0.007,0.011-0.011c0,0-0.003,0.002-0.005,0.002
				c0.004-0.003,0.007-0.007,0.012-0.01c-0.002,0.001-0.003,0.001-0.005,0.002c0.003-0.004,0.008-0.007,0.012-0.011
				c0,0.001-0.002,0.001-0.004,0.001c0.004-0.003,0.007-0.006,0.011-0.009c-0.002,0-0.003,0-0.004,0.001
				c0.003-0.003,0.007-0.006,0.011-0.01c0,0-0.002,0.001-0.004,0.002c0.004-0.003,0.008-0.007,0.01-0.011c0,0-0.002,0-0.002,0.001
				c0.002-0.003,0.006-0.006,0.01-0.009c-0.001,0-0.003,0.001-0.003,0.001c0.003-0.003,0.005-0.006,0.009-0.01
				c-0.001,0-0.001,0-0.001,0c0.001-0.002,0.005-0.005,0.009-0.008c-0.002,0-0.003,0-0.004,0c0.004-0.003,0.007-0.005,0.01-0.009
				c-0.002,0-0.002,0-0.003,0c0.003-0.003,0.007-0.007,0.011-0.01c-0.002,0-0.003,0-0.005,0.001c0.005-0.004,0.008-0.006,0.012-0.01
				c0,0-0.003,0.001-0.005,0.001c0.005-0.003,0.008-0.006,0.012-0.01c-0.002,0.001-0.004,0.001-0.004,0.001
				c0.003-0.003,0.007-0.005,0.01-0.009c-0.001,0.001-0.003,0.001-0.004,0.001c0.004-0.003,0.008-0.006,0.012-0.009
				c-0.003,0-0.004,0.001-0.004,0.001c0.003-0.004,0.007-0.008,0.011-0.011c-0.002,0.001-0.004,0.001-0.004,0.001
				c0.003-0.003,0.007-0.007,0.01-0.01c-0.001,0-0.003,0.001-0.004,0.001c0.003-0.003,0.007-0.006,0.013-0.011
				c-0.002,0.001-0.004,0.001-0.006,0.001c0.004-0.003,0.008-0.006,0.012-0.01c-0.002,0.001-0.003,0.001-0.005,0.002
				c0.003-0.003,0.007-0.007,0.012-0.01c-0.002,0-0.003,0.001-0.005,0.002c0.004-0.004,0.008-0.008,0.012-0.011
				c0,0-0.004,0.001-0.006,0.002c0.004-0.003,0.009-0.007,0.012-0.01c0,0-0.002,0-0.004,0.001c0.004-0.003,0.008-0.007,0.012-0.011
				c-0.002,0-0.004,0.002-0.004,0.002c0.002-0.005,0.006-0.007,0.006-0.01c0.004-0.003,0.007-0.005,0.012-0.009
				c-0.002,0-0.003,0-0.005,0.001c0.003-0.003,0.007-0.007,0.011-0.01c-0.001,0-0.002,0-0.004,0.001
				c0.003-0.003,0.006-0.006,0.01-0.01c0,0-0.002,0-0.004,0.001c0.004-0.003,0.008-0.007,0.012-0.011c0,0-0.002,0.001-0.004,0.002
				c0.004-0.004,0.007-0.007,0.011-0.011c-0.002,0.001-0.003,0.001-0.003,0.001c0.003-0.003,0.006-0.006,0.01-0.009
				c-0.002,0.001-0.003,0.001-0.003,0.001c0.003-0.003,0.007-0.006,0.01-0.01c-0.002,0.001-0.003,0.001-0.005,0.001
				c0.005-0.004,0.009-0.006,0.009-0.009c0.003-0.003,0.006-0.006,0.01-0.011c-0.002,0.001-0.004,0.003-0.004,0.003
				c0.003-0.004,0.007-0.008,0.01-0.011c-0.002,0.001-0.003,0.002-0.003,0.002c0.003-0.003,0.008-0.007,0.011-0.01
				c-0.001,0-0.003,0.001-0.003,0.001c0.002-0.003,0.006-0.008,0.01-0.011c-0.482,0.145-0.967,0.284-1.445,0.434
				c-0.289,0.09-0.49,0.081-0.813,0.081c-0.374,0-0.796-0.105-1.148-0.15c-0.325-0.04-0.304-0.227-0.362-0.521
				c0.082-0.045,0.162-0.093,0.238-0.144c-0.081-0.045-0.174-0.051-0.258-0.014c-0.018-0.167-0.046-0.333-0.061-0.5
				c-0.404,0.238-0.688,0.618-1.081,0.877c-0.632,0.417-1.273,0.82-1.918,1.217c-0.614,0.378-0.927,0.458-1.552,0.816
				c-0.155,0.089-0.6,0.31-0.773,0.332c-0.657,0.085-1.355,0.296-2.014,0.355c-0.154,0.012-0.331,0.012-0.462-0.054
				c-0.144-0.072-0.249-0.054-0.376,0.001c-0.297,0.132-0.609,0.175-0.932,0.158c-0.035-0.001-0.069-0.017-0.106-0.028
				c-0.043-0.092-0.084-0.181-0.126-0.27c-0.015,0.005-0.031,0.012-0.048,0.018c0,0.089,0,0.179,0,0.284
				c-0.079-0.01-0.137-0.018-0.191-0.022c-0.065-0.403,0.015-0.555,0.337-0.714c0.085-0.191,0.117-0.395,0.235-0.506
				c0.192-0.183,0.431-0.323,0.669-0.448c0.441-0.236,0.896-0.447,1.346-0.672c0.091-0.046,0.175-0.105,0.262-0.16
				c-0.012-0.027-0.023-0.055-0.035-0.083c-0.108,0.032-0.227,0.047-0.323,0.097c-0.535,0.281-1.108,0.46-1.679,0.642
				c-0.065,0.021-0.139,0.011-0.207,0.016c0.333-0.227,0.666-0.438,1.029-0.565c0.191-0.067,0.343-0.169,0.484-0.288
				c0.041-0.036,0.082-0.07,0.121-0.108c0.007-0.003,0.015-0.004,0.021-0.006c0.002-0.002,0.006-0.006,0.008-0.007
				c-0.006,0-0.011,0-0.014-0.001c-0.006,0.005-0.011,0.011-0.016,0.015c-0.483,0.144-0.967,0.284-1.446,0.434
				c-0.288,0.09-0.56,0.194-0.882,0.195c-0.288,0-0.575,0.181-0.867,0.26c-0.185,0.05-0.381,0.062-0.567,0.09
				c-0.067-0.125-0.12-0.218-0.192-0.35c0.176-0.081,0.336-0.152,0.521-0.237c-0.346-0.089-0.751,0.258-1.004-0.195
				c0.224-0.262,0.599-0.261,0.799-0.559c-0.278,0.063-0.525,0.118-0.772,0.176c-0.784,0.186-1.578,0.227-2.378,0.168
				c-0.234-0.017-0.408-0.088-0.538-0.311c-0.101-0.173-0.274-0.307-0.427-0.448c-0.161-0.147-0.339-0.278-0.501-0.424
				c-0.157-0.143-0.28-0.333-0.458-0.437c-0.257-0.149-0.449-0.345-0.582-0.597c-0.302-0.573-0.619-1.14-0.875-1.733
				c-0.247-0.573-0.314-1.173-0.107-1.793c0.208-0.615,0.365-1.247,0.555-1.867c0.091-0.296,0.229-0.569,0.465-0.782
				c0.59-0.528,1.068-1.173,1.762-1.595c0.438-0.266,0.818-0.624,1.241-0.916c0.202-0.138,0.331-0.281,0.263-0.527
				c0.272-0.149,0.556-0.234,0.678-0.526c0.021-0.049,0.091-0.081,0.144-0.113c0.247-0.156,0.488-0.329,0.749-0.46
				c0.565-0.283,1.146-0.54,1.715-0.814c0.804-0.388,1.607-0.779,2.458-1.057c0.58-0.188,1.157-0.383,1.738-0.566
				c0.245-0.077,0.5-0.12,0.744-0.199c0.629-0.205,1.255-0.417,1.877-0.638c0.143-0.049,0.2-0.007,0.237,0.121
				c-0.121,0.07-0.235,0.137-0.352,0.206c0.207-0.027,0.4-0.087,0.599-0.139c0.052-0.014,0.142-0.021,0.162,0.006
				c0.015,0.021,0.029,0.038,0.044,0.05c0.004,0.003,0.008,0.005,0.013,0.007c0.009,0.007,0.018,0.013,0.027,0.017
				c0.004,0.002,0.007,0,0.011,0.002c0.009,0.001,0.018,0.003,0.026,0.001c0.002,0,0.007-0.001,0.009-0.001
				c0.008-0.003,0.018-0.006,0.027-0.012c0.04-0.023,0.076-0.067,0.113-0.091c0.062-0.011,0.129-0.039,0.189-0.043
				c0.02-0.001,0.038,0.001,0.057,0.007c0.18,0.059,0.281-0.006,0.336-0.18c0.27,0.067,0.519,0.13,0.82,0.206
				c0-0.465,0.401-0.791,0.371-1.292c-0.016-0.229,0.156-0.475,0.257-0.707c0.093-0.215,0.155-0.416-0.071-0.571
				c0.075-0.262,0.131-0.512,0.221-0.746c0.068-0.182,0.02-0.335-0.044-0.493c-0.073-0.179-0.159-0.353-0.259-0.573
				c-0.491,0.226-0.98,0.451-1.462,0.674c-0.284-0.237-0.284-0.237-0.067-0.527c0.08-0.108,0.055-0.2-0.035-0.292
				c-0.1-0.101-0.188-0.215-0.279-0.322c-0.088-0.102-0.171-0.208-0.265-0.304c-0.146-0.147-0.285-0.296-0.282-0.521
				c0.001-0.097-0.023-0.165-0.135-0.185c-0.039-0.006-0.103-0.051-0.103-0.076c0.01-0.289-0.229-0.296-0.414-0.403
				c0,0.153,0.015,0.276-0.004,0.394c-0.018,0.121-0.046,0.264-0.231,0.15c-0.034-0.021-0.096-0.018-0.136-0.001
				c-0.191,0.07-0.265-0.05-0.349-0.186c0.098-0.172,0.189-0.335,0.28-0.497c-0.239-0.286-0.522-0.327-0.845-0.172
				c-0.043,0.021-0.092,0.042-0.119,0.076c-0.286,0.36-0.713,0.448-1.112,0.601c-0.336,0.13-0.631,0.199-0.903-0.132
				c-0.145,0.163-0.282,0.257-0.492,0.284c-0.291,0.038-0.572,0.16-0.859,0.245c-0.347,0.104-0.609-0.037-0.873-0.302
				c0.09-0.104,0.156-0.206,0.244-0.284c0.302-0.269,0.593-0.553,0.92-0.787c0.598-0.428,1.197-0.861,1.836-1.223
				c0.787-0.446,1.601-0.849,2.427-1.22c0.827-0.371,1.679-0.687,2.525-1.015c0.534-0.207,1.075-0.4,1.618-0.583
				c0.429-0.143,0.861-0.282,1.301-0.384c0.537-0.124,1.082-0.208,1.624-0.304c0.458-0.082,0.914-0.177,1.376-0.228
				c0.815-0.092,1.634-0.156,2.451-0.228c0.277-0.025,0.524,0.007,0.739,0.232c0.115,0.118,0.277,0.187,0.35,0.357
				c0.024,0.057,0.11,0.087,0.132,0.103c0.358-0.15,0.673-0.322,1.011-0.413c0.501-0.135,0.893-0.427,1.264-0.763
				c0.07-0.065,0.142-0.148,0.166-0.236c0.114-0.399,0.233-0.8,0.312-1.207c0.072-0.37,0.083-0.743,0.02-1.124
				c-0.061-0.352-0.161-0.432-0.489-0.324c-0.271,0.089-0.548,0.2-0.858,0.109c-0.009-0.163-0.018-0.307-0.027-0.485
				c0.231-0.017,0.445-0.033,0.657-0.045c0.237-0.015,0.497-0.036,0.614-0.257c0.182-0.339,0.287-0.711,0.145-1.1
				c-0.039-0.107-0.107-0.204-0.207-0.386c-0.076,0.222-0.118,0.357-0.169,0.491c-0.026,0.064-0.056,0.149-0.108,0.177
				c-0.343,0.188-0.699,0.344-1.064,0.377c-0.374-0.736-0.73-1.438-1.104-2.176c-0.298,0.112-0.587,0.24-0.89,0.331
				c-0.594,0.181-1.181,0.374-1.82,0.385c-0.373,0.005-0.741,0.143-1.129,0.131c-0.364-0.012-0.732,0.06-1.098,0.048
				c-0.243-0.006-0.545,0.035-0.688-0.239c-0.106-0.198-0.29-0.295-0.461-0.304c-0.147-0.006-0.143-0.246-0.293-0.138
				c-0.184,0.131-0.375,0.05-0.566,0.044c-0.095-0.003-0.267,0.005-0.273,0.038c-0.063,0.287-0.302,0.219-0.483,0.27
				c-0.018,0.005-0.031,0.029-0.055,0.053c0.042,0.052,0.084,0.105,0.16,0.2c-0.104,0.081-0.192,0.189-0.305,0.229
				c-0.192,0.068-0.399,0.108-0.604,0.134c-0.433,0.055-0.876,0.064-1.305,0.146c-0.528,0.101-1.045,0.265-1.57,0.387
				c-0.272,0.062-0.563,0.062-0.829,0.145c-0.6,0.186-1.188,0.406-1.784,0.614c-0.067,0.024-0.149,0.042-0.198,0.088
				c-0.162,0.161-0.365,0.187-0.574,0.197c-0.631,0.032-1.088,0.45-1.617,0.712c-0.234,0.381-0.663,0.413-1.029,0.55
				c-0.256,0.098-0.537,0.137-0.789,0.247c-0.332,0.145-0.693,0.255-0.937,0.558c-0.027,0.035-0.08,0.059-0.125,0.075
				c-0.271,0.107-0.546,0.202-0.813,0.317c-0.082,0.036-0.179,0.112-0.206,0.191c-0.047,0.136-0.135,0.184-0.254,0.229
				c-0.473,0.178-0.935,0.377-1.343,0.727c0.081,0.019,0.148,0.06,0.195,0.042c0.449-0.175,0.909-0.334,1.341-0.549
				c0.56-0.277,1.093-0.604,1.642-0.903c0.278-0.151,0.559-0.302,0.847-0.429c0.571-0.252,1.146-0.492,1.723-0.733
				c0.337-0.141,0.666-0.327,1.019-0.399c0.646-0.131,1.244-0.465,1.925-0.438c0.078,0.003,0.173-0.037,0.235-0.088
				c0.162-0.132,0.338-0.081,0.518-0.078c-0.121,0.088-0.247,0.155-0.377,0.214c-0.297,0.138-0.605,0.254-0.894,0.41
				c-0.82,0.443-1.642,0.887-2.446,1.359c-0.753,0.442-1.508,0.885-2.213,1.394c-0.646,0.467-1.232,1.016-1.83,1.544
				c-0.449,0.397-0.872,0.823-1.313,1.229c-0.106,0.097-0.239,0.168-0.368,0.237c-0.172,0.091-0.365,0.146-0.524,0.255
				c-0.2,0.135-0.364,0.323-0.563,0.464c-0.547,0.389-0.961,0.894-1.312,1.457c-0.143,0.229-0.239,0.5-0.426,0.683
				c-0.195,0.188-0.315,0.406-0.43,0.633c-0.16,0.316-0.31,0.641-0.447,0.969c-0.061,0.143-0.111,0.302-0.119,0.456
				c-0.011,0.2,0.002,0.387-0.215,0.502c-0.05,0.025-0.084,0.123-0.087,0.189c-0.007,0.326-0.184,0.536-0.442,0.699
				c-0.228,0.146-0.454,0.294-0.677,0.447c-0.068,0.047-0.176,0.11-0.179,0.172c-0.018,0.292-0.252,0.308-0.468,0.414
				c-0.286-0.788-0.662-1.533-0.288-2.396c0.061,0.064,0.101,0.106,0.165,0.173c-0.1-0.564-0.1-0.564,0.125-0.938
				c0.028,0.172,0.051,0.311,0.072,0.451c-0.054-0.313,0.245-0.479,0.314-0.738c-0.064-0.042-0.122-0.079-0.176-0.113
				c0.363-0.886,0.98-1.812,1.552-2.49c0.107-0.125,0.179-0.284,0.293-0.401c0.505-0.516,1.011-1.033,1.535-1.53
				c0.387-0.367,0.807-0.705,1.208-1.059c0.04-0.037,0.063-0.091,0.093-0.136c-0.165,0.028-0.289,0.105-0.412,0.182
				c-0.205,0.129-0.426,0.24-0.612,0.393c-0.397,0.322-0.761,0.682-1.164,0.997c-0.37,0.288-0.702,0.609-0.974,0.987
				c-0.258,0.356-0.498,0.726-0.746,1.092c-0.014,0.019-0.026,0.041-0.032,0.064c-0.074,0.285-0.273,0.483-0.472,0.683
				c-0.083,0.084-0.15,0.188-0.21,0.291c-0.055,0.093-0.085,0.198-0.132,0.297c-0.257,0.555-0.573,1.085-0.701,1.692
				c-0.031,0.144-0.033,0.303-0.103,0.425c-0.163,0.276-0.107,0.561-0.104,0.874c0.079-0.048,0.127-0.077,0.209-0.126
				c0.058,0.292,0.113,0.57,0.175,0.875c-0.154-0.05-0.254-0.083-0.384-0.125c0.14,0.294,0.259,0.546,0.383,0.805
				c-0.262,0.189-0.505,0.354-0.738,0.537c-0.24,0.188-0.487,0.375-0.699,0.595c-0.188,0.196-0.332,0.437-0.504,0.665
				c0.149-0.008,0.266-0.015,0.381-0.022c0.01,0.024,0.017,0.051,0.023,0.075c-0.275,0.29-0.552,0.58-0.837,0.882
				c0.152,0.026,0.302,0.052,0.45,0.077c-0.018,0.063-0.032,0.123-0.059,0.224c0.684-0.359,1.331-0.682,1.962-1.032
				c0.451-0.25,0.943-0.31,1.436-0.387c0.008-0.002,0.019,0.011,0.059,0.041c-0.111,0.138-0.207,0.289-0.334,0.411
				c-0.14,0.137-0.314,0.236-0.455,0.372c-0.347,0.326-0.733,0.603-1.005,1.014c-0.222,0.333-0.509,0.629-0.802,0.907
				c-0.586,0.557-1.157,1.122-1.657,1.763c-0.474,0.608-0.877,1.257-1.206,1.949c-0.155,0.325-0.371,0.633-0.387,1.011
				c-0.005,0.141,0.023,0.282,0.03,0.424c0.015,0.294,0.027,0.59,0.04,0.884c0.086-0.021,0.136-0.032,0.252-0.06
				c-0.189,0.354-0.241,0.658-0.121,0.997c0.04,0.109-0.062,0.315-0.159,0.417c-0.128,0.133-0.319,0.206-0.539,0.203
				c0.021-0.203,0.03-0.384,0.059-0.564c0.026-0.179,0.085-0.354,0.104-0.534c0.018-0.166,0.004-0.334,0.004-0.578
				c-0.181,0.612-0.402,1.138-0.25,1.672c-0.168,0.14-0.116,0.033-0.422,0.349C125.888,49.525,126.221,51.971,126.221,51.971z
				 M151.829,57.6c0.003-0.005,0.005-0.011,0.005-0.016v0.049L151.829,57.6z"/>
			<path d="M147.735,55.183c0.153-0.072,0.305-0.143,0.458-0.215c-0.019-0.029-0.038-0.059-0.057-0.088
				c-0.144,0.08-0.289,0.161-0.433,0.241C147.713,55.142,147.725,55.162,147.735,55.183z"/>
			<path d="M146.916,55.544c0.101-0.051,0.2-0.101,0.301-0.15c-0.01-0.019-0.021-0.04-0.03-0.059c-0.1,0.051-0.199,0.103-0.3,0.153
				C146.897,55.506,146.906,55.525,146.916,55.544z"/>
		</g>
	</g>
	<g id="u">
		<path d="M90.993,42.439L90.993,42.439c0.009-0.015,0.02-0.03,0.029-0.045c0.007-0.002,0.013-0.006,0.018-0.009
			c0.059-0.114,0.111-0.231,0.179-0.337c0.031-0.049,0.065-0.094,0.104-0.137c0.034-0.042,0.068-0.083,0.103-0.125
			c-0.001-0.002-0.002-0.005-0.002-0.006l0.002,0.006l0,0c0.003,0.011,0.009,0.023,0.013,0.035c0.006,0.012,0.007,0.023,0.004,0.031
			c-0.011,0.028-0.021,0.056-0.032,0.082c-0.004,0.01-0.009,0.021-0.014,0.03c-0.008,0.017-0.015,0.033-0.021,0.05
			c-0.05,0.104-0.108,0.198-0.188,0.273c0,0-0.001,0-0.002,0.001c-0.041,0.037-0.088,0.069-0.143,0.096
			c-0.002,0.006-0.006,0.012-0.009,0.018h-0.001l0,0h0.001c-0.014,0.013-0.026,0.026-0.04,0.038
			C90.992,42.44,90.993,42.439,90.993,42.439z M90.992,42.441L90.992,42.441v-0.002c-0.105,0.101-0.212,0.201-0.317,0.301
			c0.026,0.022,0.053,0.045,0.078,0.067C90.833,42.685,90.912,42.563,90.992,42.441z M98.044,62.431
			c-0.362,0.057-0.723,0.137-1.084,0.201c-0.437,0.077-0.875,0.143-1.311,0.222c-0.229,0.042-0.467,0.176-0.68,0.137
			c-0.262-0.047-0.479,0.026-0.713,0.085c-0.094,0.023-0.195,0.009-0.292,0.014c-0.081,0.004-0.16,0.012-0.241,0.019
			c-0.006,0.036-0.014,0.073-0.02,0.111c0.087,0.021,0.18,0.068,0.264,0.056c0.438-0.063,0.875-0.14,1.313-0.211
			c0.375-0.061,0.75-0.124,1.125-0.179c0.504-0.073,1.035,0.03,1.495-0.3c0.034-0.025,0.1-0.022,0.144-0.009
			c0.243,0.078,0.438-0.048,0.643-0.165C98.47,62.396,98.254,62.398,98.044,62.431z M99.685,62.045
			c-0.086-0.121-0.238-0.016-0.342,0.264c0.258-0.077,0.503,0.123,0.722-0.146C99.925,62.119,99.792,62.195,99.685,62.045z
			 M100.112,61.853c0.007,0.028,0.013,0.054,0.019,0.081c0.128-0.035,0.256-0.069,0.384-0.104c-0.008-0.028-0.015-0.055-0.021-0.084
			C100.366,61.783,100.239,61.818,100.112,61.853z M103.955,25.388c-0.103,0.073-0.204,0.147-0.307,0.22
			c0.021,0.029,0.041,0.058,0.063,0.087C103.884,25.714,103.906,25.539,103.955,25.388z M106.731,24.499
			c0.009-0.006-0.01-0.098-0.023-0.099c-0.064-0.009-0.134-0.01-0.199,0.002c-0.041,0.007-0.079,0.043-0.175,0.103
			c0.104,0.057,0.152,0.105,0.187,0.097C106.595,24.584,106.666,24.541,106.731,24.499z M97.999,34.11
			c-0.017-0.025-0.034-0.05-0.051-0.075c-0.329,0.199-0.65,0.408-0.903,0.724c0.018,0.023,0.034,0.047,0.051,0.07
			C97.397,34.59,97.698,34.35,97.999,34.11z M112.429,23.972c-0.182,0.14-0.182,0.14-0.158,0.299
			C112.323,24.171,112.376,24.072,112.429,23.972z M91.425,41.786l0.002-0.001l0.002-0.001c0.167,0.051,0.168,0.049,0.174-0.107
			c-0.062,0.038-0.116,0.072-0.173,0.107c-0.003-0.001-0.005-0.002-0.007-0.002C91.423,41.779,91.425,41.786,91.425,41.786
			L91.425,41.786L91.425,41.786z M95.538,36.261c-0.204,0.146-0.481,0.161-0.622,0.422c0.224-0.109,0.446-0.218,0.67-0.326
			C95.571,36.324,95.555,36.293,95.538,36.261z M92.584,40.673c0.113-0.283,0.417-0.272,0.516-0.522
			c0.005-0.012,0.013-0.024,0.021-0.033c0.375-0.432,0.732-0.881,1.129-1.288c0.352-0.362,0.748-0.671,1.12-1.012
			c0.253-0.229,0.489-0.478,0.741-0.707c0.395-0.355,0.799-0.7,1.196-1.052c0.101-0.09,0.173-0.226,0.284-0.292
			c0.3-0.182,0.494-0.473,0.746-0.743c-0.217-0.055-0.286,0.108-0.383,0.22c-0.088,0.103-0.168,0.226-0.359,0.12
			c0.48-0.428,0.887-0.906,1.498-1.083c0.162-0.046,0.294-0.222,0.428-0.352c0.119-0.115,0.219-0.253,0.33-0.376
			c0.204-0.225,0.409-0.448,0.626-0.685c-0.197-0.091-0.353-0.079-0.495,0.071c-0.158,0.165-0.318,0.328-0.482,0.484
			c-0.12,0.112-0.242,0.226-0.375,0.315c-0.461,0.31-0.921,0.62-1.313,1.035C97.6,35,97.38,35.217,97.155,35.448
			c-0.07,0.121-0.137,0.273-0.237,0.396c-0.104,0.13-0.233,0.239-0.36,0.344c-0.768,0.636-1.451,1.369-2.136,2.101
			c-0.49,0.523-0.979,1.047-1.447,1.591c-0.341,0.396-0.646,0.826-0.969,1.241c0.017,0.017,0.033,0.034,0.05,0.051
			C92.239,41.009,92.5,40.882,92.584,40.673z M98.554,34.91c0.068-0.086,0.137-0.172,0.204-0.259
			c-0.021-0.019-0.044-0.037-0.065-0.056c-0.068,0.093-0.136,0.186-0.203,0.278C98.511,34.885,98.532,34.897,98.554,34.91z
			 M88.182,44.47c0.066-0.064,0.136-0.129,0.245-0.234C88.237,44.237,88.137,44.258,88.182,44.47z M86.777,46.755
			c0.124-0.174,0.206-0.288,0.282-0.405c0.011-0.014-0.006-0.046-0.019-0.113C86.91,46.373,86.763,46.458,86.777,46.755z
			 M101.96,32.365c0.203-0.264,0.413-0.526,0.646-0.756c0.361-0.358,0.541-0.887,0.972-1.176c0.07-0.284,0.288-0.447,0.452-0.658
			c0.067-0.089,0.082-0.226,0.132-0.37c-0.307,0.059-0.36,0.311-0.491,0.484c-0.43,0.568-0.855,1.138-1.304,1.69
			c-0.311,0.385-0.573,0.833-1.103,1.04C101.618,32.738,101.794,32.581,101.96,32.365z M81.278,50.832
			c0.164-0.118,0.328-0.237,0.492-0.354c-0.021-0.036-0.044-0.069-0.065-0.104c-0.16,0.125-0.323,0.251-0.483,0.375
			C81.24,50.778,81.259,50.805,81.278,50.832z M101.054,32.813c-0.064,0.053-0.129,0.106-0.193,0.159
			c0.032,0.031,0.064,0.063,0.098,0.094c0.053-0.064,0.106-0.126,0.158-0.188C101.095,32.855,101.074,32.833,101.054,32.813z
			 M72.242,48.551c0.055-0.11,0.11-0.221,0.165-0.332c-0.024-0.014-0.048-0.028-0.072-0.041c-0.059,0.108-0.117,0.216-0.176,0.325
			C72.188,48.518,72.215,48.535,72.242,48.551z M101.579,30.519c-0.029-0.054-0.059-0.108-0.087-0.161
			c-0.039,0.036-0.077,0.072-0.149,0.143c0.098,0.007,0.158,0.011,0.213,0.017C101.563,30.518,101.571,30.518,101.579,30.519
			L101.579,30.519L101.579,30.519z M99.484,32.33c0,0,0,0,0,0.001c0,0.001,0.003,0.002,0.003,0.003
			c-0.066,0.097-0.154,0.173-0.243,0.247c-0.06,0.05-0.121,0.101-0.177,0.153c-0.005,0.005-0.009,0.009-0.014,0.013
			c-0.02,0.02-0.037,0.041-0.056,0.061c-0.009,0.01-0.017,0.019-0.024,0.029c-0.016,0.019-0.027,0.041-0.041,0.062
			c-0.008,0.013-0.019,0.025-0.025,0.042c-0.021,0.035-0.037,0.076-0.049,0.12c0.121-0.051,0.228-0.199,0.318-0.189
			c0.262,0.031,0.356-0.18,0.498-0.284c-0.071-0.098-0.13-0.176-0.187-0.254c0.002-0.001,0.004-0.004,0.006-0.007h-0.002l0,0
			l0.003-0.002c-0.003,0.002-0.008,0.002-0.011,0.002V32.33L99.484,32.33z M114.661,24.543c-0.075,0.009-0.128,0.015-0.156,0.019
			c-0.085-0.333-0.151-0.655-0.252-0.965c-0.063-0.192-0.206-0.307-0.424-0.288c0.216,0.692-0.052,1.274-0.531,1.369
			c-0.032-0.116-0.063-0.233-0.086-0.314c-0.25,0.125-0.459,0.283-0.685,0.321c-0.128,0.022-0.23,0.056-0.329,0.125
			c-0.137,0.093-0.27,0.19-0.399,0.292c-0.138,0.107-0.277,0.175-0.463,0.083c0.017-0.11,0.031-0.22,0.046-0.33
			c-0.056-0.006-0.109-0.01-0.223-0.019c0.291-0.401,0.549-0.752,0.802-1.107c0.163-0.226,0.159-0.228-0.043-0.519
			c-0.253,0.29-0.503,0.576-0.757,0.868c-0.092-0.16,0.005-0.229,0.078-0.323c0.175-0.224,0.362-0.443,0.498-0.692
			c0.178-0.327,0.157-0.372-0.084-0.623c-0.157-0.161-0.286-0.354-0.508-0.444c-0.094-0.04-0.15-0.19-0.225-0.291
			c-0.043-0.059-0.078-0.135-0.133-0.178c-0.149-0.116-0.318-0.207-0.465-0.328c-0.223-0.186-0.435-0.14-0.65-0.001
			c-0.092,0.06-0.176,0.129-0.266,0.196c0.086,0.111,0.153,0.203,0.23,0.302c0.128-0.008,0.261-0.017,0.437-0.027
			c-0.173,0.636-0.464,1.159-0.864,1.663c-0.068-0.149-0.112-0.245-0.162-0.354c-0.084,0.107-0.137,0.197-0.21,0.263
			c-0.186,0.172-0.39,0.323-0.57,0.503c-0.094,0.094-0.222,0.243-0.208,0.349c0.032,0.257-0.158,0.366-0.254,0.514
			c-0.146,0.228-0.437,0.598-0.514,0.829c0.247,0.077,0.354-0.148,0.492-0.281c0.157-0.148,0.284-0.334,0.434-0.493
			c0.131-0.141,0.273-0.265,0.411-0.396c-0.345,0.877-0.81,1.632-1.615,2.122c-0.214-0.109-0.467-0.241-0.722-0.37
			c-0.258-0.131-0.499-0.131-0.708,0.113c-0.019,0.022-0.06,0.022-0.085,0.031c-0.023-0.079-0.043-0.148-0.072-0.242
			c-0.15,0.088-0.268,0.219-0.424,0.083c-0.113-0.1-0.236-0.198-0.369-0.261c-0.134-0.063-0.285-0.083-0.439-0.126
			c-0.278,0.206-0.318,0.605-0.559,0.866c-0.24,0.259-0.421,0.58-0.644,0.858c-0.085,0.104-0.216,0.165-0.301,0.228
			c-0.001,0.096,0.034,0.227-0.011,0.288c-0.287,0.389-0.592,0.762-0.922,1.18c0.176,0.214-0.003,0.394-0.141,0.584
			c-0.229,0.321-0.459,0.643-0.688,0.964c-0.006,0.001-0.01,0.003-0.016,0.004c0,0.005-0.001,0.01-0.002,0.015
			c-0.15,0.124-0.297,0.254-0.439,0.39c-0.429,0.409-0.822,0.868-1.238,1.365c0.045-0.005,0.08-0.009,0.11-0.013
			c0.063-0.007,0.103-0.011,0.139-0.014v-0.002l0,0c-0.064-0.195,0.122-0.256,0.193-0.261c0.391-0.024,0.582-0.337,0.829-0.593
			c-0.064-0.049-0.11-0.084-0.176-0.136c0.102-0.059,0.18-0.121,0.27-0.157c0.086-0.033,0.182-0.04,0.236-0.051
			c0.011-0.067,0.02-0.127,0.029-0.187c0.016-0.123,0.031-0.233,0.047-0.341c0.004-0.003,0.007-0.006,0.01-0.008
			c0.002-0.003,0.007-0.007,0.008-0.011c0.014-0.002,0.027-0.008,0.041-0.013c0.018-0.005,0.037-0.009,0.055-0.016
			c0.016-0.006,0.031-0.015,0.045-0.023c0.014-0.007,0.027-0.012,0.04-0.021c0.017-0.01,0.032-0.022,0.046-0.034
			c0.011-0.007,0.021-0.014,0.03-0.022c0.018-0.014,0.033-0.031,0.051-0.046c0.006-0.008,0.015-0.013,0.021-0.019
			c0.089-0.093,0.162-0.204,0.239-0.3c0.178-0.223,0.362-0.283,0.665-0.266c-0.209,0.256-0.388,0.478-0.566,0.696l0,0l0,0
			c-0.006,0-0.012,0-0.018,0l0,0l0,0c0.003,0.004,0.004,0.009,0.008,0.014c0,0,0.002-0.003,0.004-0.005
			c-0.002,0.002-0.004,0.003-0.004,0.005l0.01-0.013c-0.106,0.208-0.221,0.396-0.429,0.521c-0.136,0.08-0.339,0.163-0.322,0.391
			c0.021,0.295-0.177,0.422-0.342,0.575c-0.098,0.09-0.211,0.159-0.317,0.24c0.012,0.025,0.023,0.05,0.035,0.076
			c0.109-0.035,0.234-0.047,0.327-0.112c0.204-0.142,0.392-0.313,0.586-0.471c0.077-0.063,0.163-0.119,0.233-0.191
			c0.233-0.24,0.449-0.504,0.697-0.726c0.404-0.364,0.735-0.797,1.069-1.229c0.196-0.255,0.394-0.512,0.608-0.751
			c0.213-0.239,0.557-0.292,0.74-0.594c0.043-0.071,0.209-0.056,0.389-0.095c-0.15,0.269-0.256,0.457-0.372,0.665
			c0.112,0.053,0.204,0.095,0.303,0.141c-0.265,0.554-0.546,1.051-0.915,1.49c-0.332,0.395-0.653,0.801-0.959,1.219
			c-0.897,1.229-1.85,2.4-2.939,3.436c-0.055,0.051-0.088,0.124-0.125,0.191c-0.059,0.111-0.094,0.244-0.173,0.335
			c-0.551,0.631-1.109,1.255-1.667,1.879c-0.053,0.06-0.115,0.109-0.175,0.163c-0.015-0.014-0.028-0.027-0.045-0.042
			c0.093-0.192,0.187-0.386,0.288-0.594c-0.082,0.018-0.139,0.029-0.197,0.042c-0.006-0.083-0.012-0.142-0.014-0.159
			c-0.388,0.438-0.772,0.9-1.186,1.332c-0.363,0.378-0.623,0.896-1.155,1.065c-0.029,0.009-0.046,0.061-0.073,0.086
			c-0.272,0.27-0.546,0.535-0.817,0.805c-0.597,0.593-1.171,1.216-1.796,1.771c-0.416,0.371-0.631,0.941-1.194,1.183
			c-0.384,0.165-0.673,0.579-1.006,0.88c-0.685,0.615-1.368,1.23-2.055,1.842c-0.057,0.05-0.137,0.071-0.239,0.123
			c0.146-0.241,0.262-0.435,0.382-0.627c0.097-0.155,0.271-0.222,0.31-0.46c0.024-0.155,0.232-0.281,0.367-0.41
			c0.349-0.331,0.531-0.822,0.92-1.115c0.023-0.017-0.006-0.113-0.018-0.229c-0.232,0.312-0.402,0.594-0.622,0.818
			c-0.37,0.377-0.748,0.729-1.026,1.21c-0.318,0.55-0.719,1.045-1.087,1.56c-0.043,0.06-0.116,0.096-0.193,0.156
			c-0.008-0.089-0.011-0.126-0.015-0.176c-0.561,0.459-1.096,0.904-1.637,1.342c-0.643,0.519-1.287,1.036-1.936,1.547
			c-1.057,0.834-2.117,1.661-3.179,2.488c-0.079,0.061-0.172,0.112-0.265,0.14c-0.309,0.095-0.62,0.179-0.932,0.264
			c-0.059,0.015-0.12,0.008-0.225,0.014c0.557-0.525,0.557-0.525,0.561-0.71c-0.012,0.003-0.025,0.002-0.035,0.009
			c-2.008,1.505-4.184,2.576-6.619,2.982c-0.56,0.093-1.071-0.041-1.601-0.211c-0.024-0.187-0.056-0.356-0.067-0.527
			c-0.019-0.225-0.012-0.448-0.242-0.577c-0.066-0.038-0.117-0.146-0.14-0.233c-0.076-0.304-0.131-0.615-0.206-0.919
			c-0.076-0.301,0.22-0.551,0.09-0.858c-0.007-0.016,0.045-0.058,0.064-0.09c0.074-0.118,0.161-0.228,0.218-0.354
			c0.111-0.253,0.206-0.515,0.309-0.772c0.015,0.006,0.03,0.011,0.045,0.016c-0.027,0.388-0.055,0.775-0.083,1.164
			c0.031,0.011,0.062,0.022,0.091,0.033c0.05-0.095,0.126-0.185,0.142-0.285c0.057-0.353,0.096-0.71,0.133-1.067
			c0.044-0.417-0.049-0.863,0.232-1.212c-0.178-0.324-0.166-0.438,0.05-0.711c0.096-0.122,0.181-0.252,0.274-0.377
			c0.029-0.04,0.078-0.109,0.098-0.103c0.281,0.101,0.222-0.173,0.282-0.3c0.01-0.022,0.019-0.046,0.024-0.07
			c0.002-0.006,0.003-0.013,0.003-0.018c0.016-0.067,0.021-0.139,0.035-0.208c0.001,0,0.003,0,0.005,0
			c0.033-0.059,0.098-0.157,0.109-0.185c0-0.004,0.002-0.006,0-0.006c-0.147-0.136-0.021-0.236,0.027-0.346
			c0.026-0.06,0.074-0.129,0.064-0.183c-0.09-0.455,0.276-0.611,0.478-0.875l0.459-0.539c-0.007-0.008-0.019-0.017-0.019-0.024
			c0.007-0.318,0.006-0.32,0.124-0.49c0.256-0.374,0.524-0.735,0.769-1.118c0.107-0.169,0.15-0.386,0.249-0.563
			c0.169-0.301,0.358-0.589,0.539-0.882c0.288-0.462,0.574-0.926,0.868-1.383c0.254-0.393,0.514-0.782,0.78-1.165
			c0.132-0.19,0.3-0.354,0.429-0.547c0.344-0.518,0.76-0.963,1.153-1.433c0.069-0.081,0.183-0.113,0.267-0.18
			c0.057-0.045,0.148-0.143,0.137-0.167c-0.107-0.211,0.057-0.309,0.162-0.373c0.195-0.118,0.287-0.319,0.425-0.482
			c0.188-0.222,0.364-0.454,0.591-0.739c-0.141,0.049-0.223,0.078-0.357,0.124c0.046-0.113,0.06-0.22,0.1-0.236
			c0.116-0.041,0.242-0.044,0.398-0.068c0.058-0.067,0.148-0.158,0.223-0.265c0.031-0.044,0.052-0.155,0.031-0.172
			c-0.186-0.16-0.04-0.239,0.063-0.32c0.148-0.119,0.312-0.216,0.453-0.342c0.262-0.23,0.467-0.511,0.58-0.857
			c0.026-0.074,0.064-0.18,0.037-0.229c-0.147-0.255,0.044-0.318,0.184-0.408c0.058-0.038,0.129-0.051,0.234-0.089
			c-0.198-0.231-0.093-0.396,0.054-0.555c0.366-0.396,0.515-0.961,0.89-1.353c0.023-0.026,0.035-0.07,0.05-0.107
			c0.134-0.342,0.278-0.675,0.604-0.868c0.063-0.038,0.123-0.142,0.127-0.218c0.005-0.08-0.058-0.164-0.093-0.251
			c0.388-0.471,0.783-0.953,1.181-1.433c0.146-0.177,0.3-0.349,0.449-0.524c0.326-0.383,0.665-0.754,0.974-1.151
			c0.14-0.179,0.276-0.4,0.315-0.622c0.089-0.506,0.123-1.022,0.17-1.537c0.013-0.138-0.033-0.285-0.009-0.421
			c0.041-0.239,0.046-0.445-0.194-0.542c0.025-0.194,0.129-0.203,0.249-0.213c0.077-0.006,0.205-0.045,0.217-0.096
			c0.062-0.252,0.254-0.223,0.414-0.244c0.198-0.024,0.385-0.084,0.437-0.301c0.063-0.26,0.155-0.538-0.015-0.798
			c-0.016-0.026-0.06-0.029-0.127-0.06c0.014,0.102,0.036,0.179,0.03,0.25c-0.009,0.07-0.03,0.171-0.074,0.193
			c-0.049,0.026-0.148,0.004-0.195-0.038c-0.081-0.07-0.141-0.174-0.275-0.349c-0.086,0.148-0.156,0.271-0.22,0.379
			c-0.237-0.045-0.437-0.108-0.504-0.433c-0.073,0.142-0.122,0.217-0.149,0.301c-0.029,0.097-0.039,0.203-0.056,0.296
			c-0.516,0.184-0.887-0.11-0.856-0.687c-0.277,0.067-0.525,0.283-0.813,0.14c-0.098,0.414-0.581,1.297-0.835,1.533
			c-0.053,0.049-0.127,0.077-0.194,0.102c-0.225,0.087-0.399,0.225-0.563,0.428c-0.065,0.079-0.123,0.173-0.191,0.259
			c-0.002,0.004-0.005,0.008-0.008,0.01c-0.02,0.024-0.039,0.05-0.061,0.073c-0.012,0.014-0.024,0.023-0.037,0.036
			c-0.013,0.011-0.025,0.025-0.039,0.038c-0.018,0.013-0.037,0.025-0.056,0.036c-0.011,0.006-0.021,0.016-0.031,0.022
			c-0.019,0.009-0.039,0.016-0.059,0.022c-0.013,0.005-0.026,0.013-0.041,0.016c-0.019,0.005-0.037,0.005-0.057,0.007
			c-0.019,0.002-0.038,0.007-0.059,0.007c0.095-0.107,0.19-0.214,0.287-0.322c-0.021-0.032-0.04-0.063-0.06-0.094
			c-0.155,0.069-0.311,0.14-0.463,0.209c0.001-0.431,0.003-0.428,0.324-0.707c0.046-0.04,0.064-0.116,0.095-0.176
			c-0.013-0.01-0.026-0.019-0.037-0.03c-0.097,0.07-0.194,0.139-0.306,0.218c0.021-0.203,0.037-0.375,0.063-0.635
			c-0.216,0.106-0.372,0.156-0.498,0.251c-0.813,0.614-1.504,1.38-2.182,2.159c-0.491,0.562-0.964,1.145-1.458,1.708
			c-0.27,0.309-0.565,0.594-0.876,0.918c0.226,0.03,0.165,0.14,0.1,0.229c-0.229,0.313-0.464,0.621-0.7,0.927
			c-0.078,0.101-0.158,0.255-0.255,0.273c-0.227,0.04-0.332,0.208-0.461,0.367c-0.226,0.281-0.456,0.557-0.683,0.836
			c-0.025,0.03-0.067,0.064-0.065,0.092c0.025,0.319-0.201,0.473-0.373,0.652c-0.382,0.4-0.771,0.792-1.165,1.177
			c-1.184,1.154-2.162,2.493-3.133,3.848c-0.344,0.48-0.536,1.107-1.08,1.417c-0.041,0.022-0.041,0.119-0.071,0.174
			c-0.182,0.328-0.278,0.717-0.589,0.952c-0.027,0.021-0.058,0.054-0.064,0.086c-0.078,0.432-0.268,0.776-0.616,1.026
			c-0.101,0.072-0.147,0.24-0.209,0.37c-0.045,0.095-0.056,0.212-0.112,0.294c-0.352,0.503-0.577,1.079-0.811,1.65
			c-0.03,0.069-0.057,0.16-0.108,0.195c-0.325,0.221-0.458,0.584-0.618,0.928c-0.111,0.237-0.182,0.504-0.321,0.718
			c-0.142,0.217-0.041,0.543-0.298,0.691c0.049,0.263-0.149,0.327-0.292,0.449c-0.101,0.086-0.192,0.207-0.241,0.334
			c-0.151,0.386-0.261,0.791-0.419,1.174c-0.221,0.531-0.498,1.034-0.612,1.612c-0.041,0.208-0.098,0.414-0.17,0.612
			c-0.354,0.975-0.467,2.008-0.643,3.025c-0.086,0.495-0.075,1.008-0.136,1.508c-0.128,1.052-0.093,2.105,0.023,3.15
			c0.055,0.478,0.21,0.958,0.555,1.32c0.106,0.112,0.212,0.22,0.171,0.409c-0.008,0.038,0.05,0.098,0.086,0.14
			c0.082,0.098,0.188,0.176,0.254,0.284c0.208,0.343,0.486,0.587,0.827,0.776c0.352,0.194,0.65,0.442,0.846,0.854
			c0.151,0.321,0.407,0.61,0.671,0.837c0.625,0.54,1.375,0.769,2.154,0.901c0.09,0.016,0.189-0.026,0.283-0.049
			c0.309-0.078,0.614-0.2,0.928-0.23c0.404-0.04,0.799,0.069,1.223-0.074c0.56-0.187,1.163-0.207,1.746-0.318
			c0.52-0.1,1.031-0.264,1.555-0.33c0.644-0.082,1.266-0.239,1.875-0.458c0.526-0.191,1.033-0.441,1.558-0.642
			c0.37-0.14,0.763-0.194,1.121-0.392c0.439-0.243,0.898-0.445,1.359-0.638c0.526-0.22,1.07-0.387,1.565-0.7
			c0.316-0.198,0.675-0.319,1.012-0.48c0.265-0.125,0.487-0.3,0.649-0.571c0.093-0.157,0.169-0.359,0.396-0.4
			c0.035,0.062,0.076,0.113,0.095,0.174c0.22,0.733,0.625,1.361,1.002,2c0.15,0.255,0.345,0.502,0.572,0.672
			c0.243,0.182,0.423,0.398,0.574,0.66c0.032,0.057,0.069,0.114,0.116,0.152c0.397,0.315,0.779,0.656,1.2,0.927
			c0.442,0.286,0.915,0.521,1.392,0.741c0.195,0.091,0.436,0.124,0.65,0.105c0.252-0.021,0.477,0.019,0.711,0.104
			c0.29,0.106,0.59,0.181,0.883,0.275c0.015,0.003,0.018,0.043,0.031,0.082c-0.079,0.05-0.162,0.102-0.251,0.16
			c0.223,0.11,0.431,0.211,0.575,0.285c0.033,0.111,0.043,0.207,0.066,0.212c0.371,0.076,0.726,0.299,1.131,0.158
			c0.007-0.068,0.015-0.139,0.023-0.22c0.273-0.044,0.537-0.129,0.797-0.121c0.648,0.019,1.282-0.11,1.901-0.247
			c0.75-0.167,1.503-0.309,2.259-0.423c0.822-0.121,1.623-0.334,2.418-0.575c0.523-0.158,1.023-0.404,1.546-0.565
			c0.987-0.307,1.937-0.724,2.89-1.13c0.244-0.104,0.473-0.248,0.709-0.373c-0.432-0.017-0.781,0.344-1.224,0.216
			c-0.026-0.202,0.123-0.252,0.235-0.322c0.192-0.12,0.396-0.22,0.588-0.34c0.201-0.126,0.408-0.251,0.593-0.404
			c0.167-0.139,0.419-0.082,0.543-0.299c0.414-0.064,0.738-0.323,1.069-0.569c0.418-0.309,0.852-0.581,1.333-0.774
			c0.321-0.127,0.604-0.364,0.921-0.51c0.324-0.149,0.564-0.434,0.899-0.571c0.567-0.23,0.875-0.875,1.456-1.09
			c-0.065-0.256-0.16-0.615-0.133-0.883c0.047-0.488,0.427-0.857,0.464-1.337c-0.073-0.037-0.144-0.08-0.214-0.123
			c0.053-0.048,0.089-0.117,0.1-0.239c-0.09,0.059-0.185,0.085-0.263,0.139c-0.021-0.012-0.042-0.025-0.063-0.036
			c-0.119-0.062-0.215-0.073-0.301-0.048c-0.154,0.04-0.275,0.187-0.436,0.33c-0.072,0.031-0.145,0.063-0.217,0.094
			c-0.368,0.04-0.666,0.267-0.986,0.433c-0.061,0.032-0.144,0.122-0.138,0.175c0.022,0.199-0.11,0.237-0.226,0.303
			c-0.098,0.057-0.192,0.118-0.288,0.179c-0.308,0.194-0.632,0.344-0.996,0.443c-0.026-0.113-0.046-0.204-0.069-0.304
			c-0.229,0.113-0.455,0.224-0.682,0.336c0.007,0.019,0.014,0.039,0.021,0.059c0.063-0.007,0.127-0.013,0.184-0.02
			c0.025,0.083,0.048,0.156,0.068,0.225c-0.268,0.338-0.592,0.58-0.987,0.736c-0.521,0.207-1.023,0.465-1.535,0.695
			c-0.063,0.028-0.137,0.032-0.204,0.046c0.162-0.196,0.264-0.462,0.553-0.462c0.051,0,0.116-0.049,0.146-0.096
			c0.071-0.122,0.127-0.253,0.181-0.36c-0.54,0.265-1.114,0.547-1.688,0.828c-0.013-0.03-0.025-0.06-0.039-0.089
			c0.186-0.111,0.373-0.223,0.559-0.335c-0.216,0.009-0.404,0.094-0.597,0.159c-0.204,0.07-0.421,0.099-0.617,0.186
			c-0.872,0.392-1.765,0.702-2.693,0.887c-0.071,0.014-0.148-0.01-0.275-0.022c0.407-0.387,0.726-0.782,1.219-0.913
			c0.119-0.032,0.23-0.093,0.347-0.137c0.153-0.06,0.188-0.168,0.126-0.335c-0.095,0.044-0.171,0.089-0.255,0.119
			c-1.665,0.593-3.352,1.101-5.092,1.373c-0.267,0.042-0.539,0.04-0.811,0.05c-0.17,0.005-0.345-0.034-0.508,0.001
			c-0.831,0.179-2.004-0.18-2.562-1.129c-0.117-0.199-0.186-0.366-0.054-0.619c0.229-0.438,0.487-0.861,0.605-1.363
			c0.067-0.279,0.211-0.538,0.328-0.8c0.171-0.378,0.394-0.739,0.511-1.135c0.104-0.352,0.266-0.633,0.484-0.912
			c0.22-0.28,0.358-0.632,0.555-0.938c0.258-0.404,0.532-0.795,0.808-1.187c0.187-0.265,0.391-0.514,0.576-0.78
			c0.064-0.093,0.12-0.208,0.134-0.32c0.007-0.055-0.086-0.127-0.157-0.225c0.506-0.542,1.01-1.066,1.496-1.607
			c0.59-0.657,1.343-1.121,1.873-1.848c0.42-0.17,0.562-0.678,0.938-0.911c0.109-0.066,0.171-0.223,0.247-0.344
			c0.049-0.076,0.073-0.171,0.127-0.243c0.24-0.32,0.499-0.625,0.729-0.956c0.224-0.32,0.548-0.528,0.726-0.912
			c0.148-0.32,0.467-0.54,0.693-0.826c0.333-0.428,0.68-0.841,1-1.285c0.437-0.603,0.938-1.153,1.414-1.724
			c0.271-0.326,0.591-0.617,0.813-0.978c0.397-0.648,0.876-1.22,1.33-1.815c0.133-0.174,0.299-0.337,0.38-0.538
			c0.229-0.565,0.631-0.982,1.001-1.42c0.304-0.361,0.676-0.656,1.023-0.974c0.556-0.508,1.109-1.013,1.671-1.512
			c0.344-0.304,0.666-0.665,1.058-0.872c0.567-0.301,0.727-0.825,0.855-1.399c0.063-0.278,0.106-0.561,0.159-0.846
			c-0.035-0.057-0.137-0.144-0.127-0.218c0.021-0.207,0.054-0.428,0.146-0.604C114.703,25.292,114.731,24.932,114.661,24.543z"/>
	</g>
	<g id="q">
		<path fill-rule="evenodd" clip-rule="evenodd" d="M4.938,106.007h0.209C5.079,106.012,5.007,106.006,4.938,106.007z
			 M55.499,30.942c-0.076-0.179-0.205-0.34-0.258-0.525c-0.108-0.386-0.292-0.725-0.567-1.013c-0.087-0.093-0.208-0.155-0.299-0.245
			c-0.233-0.231-0.457-0.47-0.686-0.708c-0.081-0.086-0.168-0.147-0.318-0.042c0.024,0.135,0.054,0.285,0.075,0.436
			c0.022,0.146,0.049,0.311-0.127,0.375c-0.151,0.056-0.311,0.156-0.469-0.03c-0.196-0.227-0.497-0.365-0.572-0.696
			c-0.016-0.065-0.079-0.122-0.129-0.176c-0.38-0.404-0.936-0.384-1.404-0.574c-0.037-0.016-0.097,0.008-0.142,0.024
			c-0.289,0.103-0.566,0.11-0.856-0.019c-0.18-0.08-0.375,0.037-0.434,0.215c-0.066,0.199-0.135,0.398-0.2,0.591
			c0.313,0.055,0.418-0.261,0.647-0.424c-0.086,0.243-0.203,0.441-0.214,0.645c-0.011,0.207-0.103,0.289-0.262,0.329
			c-0.134,0.035-0.276,0.034-0.472,0.055c0.093-0.164,0.152-0.268,0.229-0.404c-0.196,0.093-0.452,0.412-0.593,0.735
			c0.222-0.22,0.392-0.184,0.556-0.011c-0.104,0.296-0.228,0.537-0.532,0.677c-0.27,0.125-0.474,0.348-0.564,0.649
			c-0.043,0.146-0.121,0.239-0.276,0.311c-0.251,0.115-0.468,0.31-0.778,0.216c-0.049-0.016-0.117,0.027-0.176,0.045
			c-0.175,0.052-0.35,0.103-0.525,0.156c-0.068,0.022-0.153,0.034-0.203,0.081c-0.273,0.261-0.576,0.324-0.877,0.159
			c-0.085,0.196-0.133,0.391-0.238,0.547c-0.524,0.792-1.06,1.574-1.599,2.355c-0.229,0.333-0.466,0.662-0.716,0.98
			c-0.414,0.527-0.814,1.069-1.272,1.557c-0.327,0.35-0.763,0.593-1.079,0.967c-0.061,0.071-0.165,0.103-0.248,0.156
			c-0.235,0.15-0.476,0.294-0.703,0.457c-0.194,0.141-0.372,0.304-0.592,0.484c0.168,0.024,0.276,0.014,0.3,0.193
			c0.01,0.086,0.27,0.099,0.241,0.267c-0.032,0.186,0.155,0.13,0.217,0.254c-0.045,0.064-0.088,0.153-0.156,0.212
			c-0.226,0.19-0.46,0.37-0.691,0.551c-0.785,0.611-1.57,1.222-2.355,1.831c-0.091,0.07-0.192,0.124-0.289,0.185
			c0.226-0.41,0.695-0.602,0.816-1.083c-0.204,0.072-0.384,0.17-0.56,0.276c-0.126,0.076-0.243,0.165-0.367,0.245
			c-0.134,0.087-0.261,0.085-0.421-0.043c0.391-0.296,0.756-0.574,1.119-0.851c-0.046-0.067-0.078-0.114-0.119-0.174
			c0.089-0.082,0.176-0.162,0.299-0.277c-0.339,0.07-0.527,0.289-0.75,0.443c-0.239,0.168-0.444,0.409-0.706,0.511
			c-0.212,0.082-0.395,0.177-0.563,0.316c-0.073,0.062-0.147,0.125-0.228,0.178c-0.51,0.334-1.021,0.663-1.53,0.996
			c-0.06,0.039-0.162,0.097-0.158,0.137c0.042,0.391-0.271,0.521-0.494,0.73c-0.252,0.238-0.522,0.43-0.863,0.525
			c-0.205,0.055-0.417,0.178-0.464,0.386c-0.051,0.234-0.205,0.317-0.374,0.411c-0.748,0.42-1.502,0.833-2.247,1.257
			c-0.903,0.512-1.8,1.035-2.703,1.549c-0.821,0.466-1.645,0.928-2.47,1.385c-0.266,0.148-0.533,0.3-0.815,0.404
			c-0.275,0.1-0.569,0.141-0.855,0.207c-0.016,0.003-0.036-0.021-0.095-0.057c0.176-0.16,0.329-0.324,0.507-0.457
			c0.194-0.146,0.408-0.271,0.62-0.393c0.18-0.102,0.372-0.183,0.554-0.282c0.226-0.12,0.465-0.225,0.655-0.385
			c0.09-0.076,0.117-0.198,0.275-0.166c0.041,0.009,0.107-0.04,0.145-0.079c0.103-0.111,0.197-0.232,0.339-0.399
			c-0.095,0.041-0.136,0.056-0.174,0.075c-1.213,0.648-2.417,1.31-3.639,1.94c-0.841,0.433-1.694,0.838-2.557,1.226
			c-0.614,0.275-1.253,0.503-1.879,0.75c-0.95,0.373-1.894,0.759-2.849,1.11c-0.6,0.219-1.219,0.391-1.861,0.425
			c-0.449,0.023-0.879-0.034-1.168-0.46c-0.079-0.117-0.113-0.206-0.064-0.333c0.066-0.17,0.123-0.345,0.19-0.514
			c0.214-0.534,0.388-1.083,0.698-1.577c0.271-0.435,0.5-0.899,0.764-1.339c0.276-0.46,0.559-0.918,0.865-1.36
			c0.479-0.689,0.985-1.361,1.474-2.046c0.716-1.009,1.423-2.024,2.142-3.03c0.341-0.478,0.703-0.94,1.053-1.412
			c0.205-0.276,0.389-0.569,0.611-0.831c0.97-1.144,2.045-2.185,3.171-3.173c0.23-0.203,0.478-0.387,0.71-0.588
			c0.666-0.575,1.322-1.162,1.993-1.73c0.428-0.362,0.873-0.702,1.315-1.046c0.263-0.203,0.529-0.397,0.804-0.582
			c0.071-0.047,0.18-0.037,0.305-0.059c0.05-0.228,0.254-0.378,0.472-0.516c0.093-0.059,0.188-0.115,0.281-0.175
			c0.825-0.528,1.644-1.068,2.479-1.581c0.781-0.48,1.575-0.941,2.373-1.393c0.756-0.429,1.516-0.855,2.293-1.242
			c0.579-0.288,1.179-0.544,1.789-0.753c0.859-0.292,1.729-0.559,2.608-0.777c0.531-0.132,1.09-0.157,1.639-0.223
			c0.477-0.056,0.952-0.098,1.35-0.415c0.181-0.145,0.376-0.272,0.564-0.404c0.211-0.147,0.408-0.317,0.634-0.437
			c0.537-0.283,0.854-0.801,1.298-1.185c0.025-0.022,0.036-0.063,0.056-0.094c0.307-0.467,0.304-0.966,0.168-1.488
			c-0.078-0.298-0.116-0.609-0.172-0.912c-0.221,0.102-0.312-0.164-0.453-0.246c-0.197,0.036-0.365,0.066-0.533,0.096
			c-0.387,0.067-0.773,0.123-1.157,0.207c-0.466,0.103-0.919,0.01-1.374-0.054c-0.075-0.01-0.143-0.072-0.214-0.11
			c0.007-0.022,0.013-0.044,0.019-0.067c0.25,0.03,0.498,0.058,0.747,0.086c0.005-0.024,0.011-0.047,0.016-0.071
			c-0.333-0.111-0.667-0.221-1.046-0.346c0.146-0.066,0.241-0.11,0.369-0.169c-0.215-0.093-0.398-0.144-0.534-0.021
			c-0.19,0.171-0.332-0.092-0.496-0.017c-0.056,0.024-0.109,0.066-0.167,0.072c-0.032,0.003-0.07-0.048-0.131-0.092
			c0.105-0.08,0.189-0.142,0.299-0.224c-0.184-0.065-0.342-0.12-0.513-0.182c-0.262,0.287-0.56,0.505-0.935,0.604
			c-0.054,0.013-0.1,0.058-0.145,0.094c-0.112,0.088-0.211,0.205-0.336,0.263c-0.211,0.097-0.441,0.148-0.657,0.236
			c-0.607,0.248-1.206,0.521-1.82,0.755c-1.293,0.496-2.595,0.974-3.892,1.458c-1.058,0.395-2.112,0.798-3.089,1.378
			c-0.356,0.213-0.731,0.397-1.084,0.617c-0.821,0.511-1.677,0.981-2.44,1.568c-1.206,0.924-2.357,1.92-3.517,2.903
			c-0.747,0.632-1.477,1.285-2.198,1.947c-1.04,0.954-2.138,1.835-3.254,2.697c-0.852,0.657-1.704,1.316-2.467,2.078
			c-0.214,0.212-0.521,0.343-0.616,0.666c-0.069,0.064-0.138,0.128-0.205,0.193c-0.042,0.025-0.092,0.043-0.124,0.077
			c-0.57,0.67-1.138,1.343-1.727,2.037c0.244,0.04,0.311,0.15,0.251,0.321c-0.048,0.136-0.106,0.274-0.184,0.397
			c-0.171,0.267-0.353,0.528-0.534,0.788c-0.441,0.632-0.88,1.266-1.331,1.891c-0.119,0.167-0.261,0.33-0.423,0.45
			c-0.218,0.161-0.466,0.278-0.716,0.423c0.097,0,0.19,0,0.348,0c-0.235,0.318-0.442,0.59-0.639,0.868
			c-0.063,0.091-0.194-0.02-0.254,0.143c-0.139,0.374-0.331,0.729-0.504,1.09c-0.063,0.131-0.112,0.277-0.204,0.387
			c-0.209,0.248-0.275,0.549-0.314,0.848c-0.088,0.654-0.129,1.303-0.418,1.92c-0.194,0.417-0.266,0.89-0.412,1.331
			c-0.322,0.956-0.405,1.94-0.365,2.94c0.035,0.94,0.242,1.849,0.547,2.731c0.195,0.565,0.451,1.115,0.895,1.55
			c0.156,0.154,0.301,0.323,0.422,0.506c0.443,0.66,0.96,1.229,1.698,1.578c0.521,0.246,1.025,0.505,1.611,0.584
			c0.29,0.039,0.579,0.033,0.861,0.075c0.792,0.121,1.559,0.003,2.321-0.169c0.688-0.155,1.368-0.355,2.047-0.549
			c0.682-0.196,1.35-0.432,1.989-0.742c0.239-0.118,0.479-0.26,0.735-0.319c0.449-0.107,0.851-0.303,1.244-0.529
			c0.563-0.322,1.111-0.673,1.688-0.974c0.747-0.392,1.518-0.739,2.271-1.122c0.47-0.238,0.925-0.505,1.386-0.759
			c0.514-0.283,1.025-0.571,1.541-0.849c0.344-0.185,0.703-0.342,1.039-0.54c0.181-0.107,0.424-0.166,0.47-0.438
			c0.009-0.058,0.097-0.106,0.155-0.151c0.566-0.426,1.14-0.844,1.701-1.278c0.464-0.36,0.924-0.725,1.363-1.113
			c0.152-0.134,0.398-0.272,0.267-0.564c-0.009-0.021,0.022-0.069,0.048-0.092c0.486-0.448,0.967-0.899,1.467-1.334
			c0.172-0.151,0.381-0.264,0.58-0.384c0.183-0.112,0.191-0.339,0.306-0.468c0.239-0.272,0.557-0.478,0.842-0.71
			c0.021,0.016,0.041,0.033,0.062,0.05c-0.091,0.21-0.161,0.434-0.275,0.63c-0.25,0.434-0.505,0.87-0.792,1.281
			c-0.442,0.631-0.756,1.322-1.006,2.058c0.168-0.206,0.335-0.413,0.504-0.619c0.027,0.076,0.02,0.138-0.01,0.184
			c-0.129,0.193-0.269,0.38-0.394,0.577c-0.053,0.078-0.132,0.23-0.107,0.254c0.172,0.166,0.005,0.27-0.06,0.371
			c-0.263,0.415-0.554,0.81-0.81,1.23c-0.312,0.51-0.574,1.05-0.898,1.552c-1.019,1.577-2.088,3.121-2.965,4.788
			c-0.285,0.542-0.606,1.065-0.904,1.602c-0.285,0.512-0.561,1.03-0.843,1.544c-0.274,0.503-0.588,0.985-0.791,1.528
			c-0.079,0.211-0.259,0.383-0.386,0.578c-0.076,0.115-0.149,0.232-0.223,0.348c-0.065,0.103-0.13,0.205-0.194,0.308
			c-0.012,0.011-0.022,0.023-0.034,0.035c-0.003,0.007-0.009,0.015-0.014,0.023c0.009-0.007,0.015-0.011,0.021-0.016l0,0
			c0.01-0.015,0.018-0.028,0.026-0.043c0.019-0.018,0.038-0.038,0.056-0.058c0.053-0.053,0.109-0.111,0.174-0.178
			c0.039-0.041,0.081-0.082,0.129-0.132c-0.084,0.19-0.129,0.301-0.182,0.408c-0.314,0.649-0.631,1.299-0.943,1.951
			c-0.641,1.341-1.298,2.665-2.173,3.884c-0.852,1.183-1.6,2.441-2.379,3.676c-0.302,0.477-0.547,0.987-0.839,1.468
			c-0.313,0.51-0.651,1.002-0.972,1.507c-0.546,0.86-1.099,1.719-1.628,2.59c-0.506,0.833-0.994,1.678-1.48,2.522
			c-0.146,0.254-0.272,0.521-0.401,0.784c-0.123,0.252-0.233,0.512-0.358,0.765c-0.12,0.247-0.16,0.523-0.333,0.755
			c-0.146,0.197-0.315,0.414-0.268,0.697c-0.222,0.189-0.178,0.461-0.234,0.695c-0.104,0.076-0.2,0.16-0.245,0.265
			c-0.057,0.131-0.058,0.285-0.106,0.42c-0.08,0.225-0.168,0.448-0.273,0.661c-0.196,0.391-0.417,0.772-0.608,1.166
			c-0.043,0.087-0.051,0.233-0.008,0.316c0.195,0.378,0.023,0.73-0.116,1.041c-0.327,0.723-0.718,1.416-1.087,2.119
			c-0.193,0.369-0.44,0.716-0.587,1.101c-0.26,0.687-0.65,1.307-0.938,1.981c-0.188,0.441-0.347,0.882-0.48,1.339
			c-0.084,0.289-0.161,0.581-0.24,0.871c-0.016-0.003-0.03-0.007-0.046-0.01C7.621,98.767,7.61,98.563,7.6,98.36
			c-0.165,0.229-0.233,0.46-0.195,0.725c0.044,0.323,0.018,0.395-0.138,0.569c0.002-0.654,0.131-1.28,0.069-1.913
			c-0.088,0.144-0.153,0.291-0.171,0.443c-0.061,0.509-0.113,1.021-0.146,1.533c-0.016,0.279-0.065,0.531-0.27,0.738
			c-0.068,0.069-0.104,0.169-0.171,0.239c-0.349,0.368-0.505,0.912-1.055,1.113c0.16,0.141,0.043,0.229-0.025,0.321
			c-0.434,0.582-0.869,1.159-1.3,1.742c-0.053,0.07-0.079,0.161-0.117,0.243c0.024,0.019,0.049,0.036,0.074,0.055
			c0.031-0.052,0.056-0.11,0.095-0.155c0.622-0.739,1.246-1.476,1.872-2.213c0.062-0.073,0.13-0.178,0.211-0.195
			c0.243-0.05,0.494-0.065,0.805-0.102c-0.18,0.27-0.324,0.484-0.49,0.729c0.104-0.021,0.156-0.032,0.256-0.054
			c-0.082,0.118-0.139,0.207-0.203,0.289c-0.687,0.882-1.375,1.76-2.059,2.643c-0.056,0.073-0.195,0.132-0.092,0.281
			c0.073-0.056,0.15-0.1,0.204-0.165c0.235-0.284,0.484-0.559,0.683-0.866c0.117-0.184,0.273-0.264,0.4-0.306
			c0.083-0.164,0.121-0.296,0.203-0.393c0.253-0.296,0.521-0.58,0.785-0.868c0.055-0.058,0.118-0.106,0.178-0.159
			c0.012,0.01,0.025,0.02,0.038,0.028c-0.045,0.104-0.091,0.207-0.136,0.306c0.061,0.043,0.108,0.077,0.138,0.098
			c-0.032,0.088-0.053,0.167-0.089,0.239c-0.061,0.125-0.11,0.267-0.203,0.365c-0.158,0.164-0.249,0.29-0.303,0.579
			c0.242-0.179,0.33-0.496,0.683-0.63c-0.347,0.444-0.657,0.822-0.942,1.215c-0.219,0.301-0.396,0.631-0.61,0.933
			c-0.07,0.099,0.501,0.516-0.218,0.492c-0.04-0.001,0.981-0.253,0.938-0.25l1.08-0.236L8.353,106l0.344,0c0.002,0,0.002,0,0.004,0
			c0.127,0.005,1.021-0.894,1.148-0.889c0.113,0.004-0.539,0.912-0.428,0.915c0.063,0.001,2.012-2.721,2.063-2.746l-1.331,2.717
			c0.002,0.007,1.114-1.31,1.116-1.304c0.204,0-0.7,1.329-0.497,1.321c0.031,0,0.059-0.008,0.08-0.018l0,0l0.805,0.263l0.646-0.266
			c-0.149,0,0.262-0.445,0.084-0.464c0.219-0.361-0.182-0.281,0.044-0.563c0.122-0.152,0.165-0.307,0.229-0.474
			c0.161-0.423,0.34-0.839,0.534-1.249c0.084-0.177,0.305-0.296,0.195-0.549c-0.015-0.04,0.069-0.121,0.105-0.182
			c0.08-0.137,0.174-0.268,0.239-0.41c0.105-0.235,0.195-0.477,0.292-0.716c0.202-0.5,0.411-0.999,0.608-1.502
			c0.313-0.795,0.619-1.594,0.932-2.39c0.025-0.066,0.079-0.124,0.129-0.177c0.255-0.268,0.505-0.542,0.769-0.801
			c0.251-0.247,0.487-0.506,0.755-0.741c0.334-0.291,0.557-0.708,0.835-1.064c0.215-0.277,0.454-0.536,0.659-0.82
			c0.215-0.293,0.403-0.606,0.595-0.917c0.025-0.041,0.004-0.109,0.004-0.183c-0.092,0.056-0.154,0.096-0.229,0.142
			c-0.007-0.056-0.021-0.083-0.012-0.103c0.254-0.665,0.511-1.326,0.769-1.987c0.018-0.045,0.051-0.083,0.074-0.127
			c0.287-0.565,0.573-1.13,0.859-1.695c0.266-0.524,0.524-1.051,0.797-1.57c0.072-0.14,0.246-0.248,0.266-0.385
			c0.047-0.323,0.249-0.555,0.393-0.821c0.129-0.236,0.271-0.465,0.412-0.697c0.392-0.649,0.785-1.297,1.176-1.946
			c0.313-0.526,0.639-1.045,0.933-1.582c0.329-0.601,0.628-1.218,0.937-1.827c0.216-0.428,0.438-0.853,0.641-1.286
			c0.098-0.209,0.141-0.445,0.24-0.653c0.305-0.639,0.631-1.268,0.943-1.904c0.183-0.371,0.335-0.758,0.538-1.117
			c0.183-0.324,0.405-0.612,0.515-0.986c0.119-0.406,0.337-0.786,0.537-1.164c0.272-0.509,0.455-1.067,0.848-1.519
			c-0.062-0.04-0.114-0.074-0.201-0.129c0.137-0.106,0.252-0.192,0.362-0.285c0.103-0.088,0.238-0.194,0.173-0.337
			c-0.109-0.236,0.019-0.297,0.194-0.377c0.079-0.035,0.13-0.134,0.197-0.207c-0.088-0.059-0.152-0.104-0.238-0.164
			c0.093-0.167,0.184-0.311,0.253-0.467c0.061-0.139,0.096-0.29,0.149-0.457c-0.174,0.037-0.203,0.284-0.418,0.17
			c0.187-0.285,0.366-0.561,0.55-0.841c0.043,0.038,0.08,0.068,0.151,0.129c0.06-0.161,0.29-0.235,0.151-0.469
			c-0.014-0.024-0.001-0.076,0.016-0.101c0.125-0.179,0.239-0.37,0.389-0.526c0.282-0.298,0.42-0.657,0.514-1.045
			c-0.139,0.131-0.171,0.364-0.463,0.385c0.146-0.239,0.246-0.475,0.409-0.65c0.214-0.229,0.485-0.405,0.72-0.618
			c0.115-0.104,0.289-0.248,0.277-0.359c-0.019-0.209,0.105-0.311,0.194-0.444c0.089-0.131,0.19-0.254,0.28-0.384
			c0.385-0.564,0.775-1.126,1.152-1.698c0.436-0.665,0.871-1.331,1.286-2.009c0.263-0.429,0.481-0.883,0.732-1.321
			c0.228-0.4,0.559-0.74,0.686-1.199c0.013-0.043,0.052-0.081,0.081-0.119c0.379-0.496,0.765-0.989,1.131-1.494
			c0.074-0.101,0.146-0.296,0.1-0.373c-0.164-0.266,0.009-0.375,0.176-0.495c0.299-0.213,0.475-0.523,0.668-0.84
			c-0.187,0.136-0.373,0.154-0.568,0.062c-0.051-0.212,0.118-0.299,0.248-0.363c0.211-0.102,0.357-0.253,0.476-0.443
			c0.221-0.36,0.499-0.677,0.739-1.025c0.42-0.611,0.941-1.147,1.326-1.79c0.109-0.18,0.19-0.385,0.325-0.552
			c0.3-0.366,0.599-0.731,0.895-1.101c0.131-0.162,0.262-0.326,0.373-0.502c0.472-0.732,1.026-1.388,1.644-2.008
			c0.514-0.518,0.956-1.11,1.404-1.691c0.334-0.434,0.599-0.923,0.942-1.349c0.665-0.824,1.248-1.705,1.799-2.603
			c0.659-1.077,1.262-2.188,1.895-3.281c0.35-0.605,0.689-1.217,1.074-1.798c0.391-0.591,0.81-1.166,1.313-1.669
			c0.527-0.526,1.05-1.055,1.545-1.613c0.448-0.507,0.539-1.107,0.59-1.728C55.648,31.246,55.562,31.087,55.499,30.942z
			 M6.397,98.457c0.453-0.826,0.905-1.653,1.342-2.488c0.107-0.204,0.246-0.419,0.189-0.69c-0.192,0.324-0.377,0.637-0.564,0.948
			c-0.567,0.944-1.01,1.962-1.66,2.858c-0.107,0.149-0.188,0.316-0.285,0.473c-0.464,0.751-0.923,1.505-1.401,2.247
			c-0.223,0.346-0.389,0.739-0.691,0.946c-0.032,0.18-0.057,0.31-0.096,0.529c0.202-0.304,0.353-0.542,0.516-0.772
			c0.594-0.839,1.21-1.665,1.782-2.519C5.854,99.502,6.115,98.973,6.397,98.457z M16.048,78.668c0.287-0.47,0.604-0.921,0.88-1.398
			c0.704-1.21,1.428-2.405,2.251-3.538c0.103-0.144,0.189-0.301,0.285-0.451c-0.031-0.025-0.063-0.049-0.092-0.075
			c-0.187,0.271-0.365,0.546-0.56,0.812c-0.375,0.513-0.759,1.023-1.135,1.537c-0.071,0.099-0.132,0.208-0.19,0.316
			c-0.177,0.329-0.334,0.67-0.529,0.989c-0.327,0.529-0.685,1.04-1.017,1.568c-0.103,0.163-0.162,0.353-0.243,0.531
			c-0.058,0.132-0.103,0.275-0.183,0.396c-0.236,0.359-0.49,0.705-0.73,1.062c-0.177,0.265-0.345,0.54-0.557,0.874
			c0.12-0.038,0.166-0.037,0.179-0.059c0.41-0.596,0.822-1.19,1.219-1.794C15.784,79.193,15.895,78.917,16.048,78.668z
			 M13.521,82.527c-0.555,0.669-1.8,3.178-1.774,3.549c0.336-0.64,0.646-1.208,0.934-1.786
			C12.972,83.708,13.242,83.115,13.521,82.527z M23.691,66.892c-0.151,0.181-0.323,0.346-0.459,0.538
			c-0.23,0.322-0.44,0.661-0.655,0.994c-0.022,0.036-0.022,0.084-0.032,0.127c0.67-0.617,1.17-1.35,1.608-2.125
			c-0.093,0.071-0.192,0.137-0.276,0.219C23.805,66.716,23.758,66.813,23.691,66.892z M10.031,89.441
			c0.707-0.72,0.9-1.694,1.238-2.6C10.856,87.707,10.443,88.574,10.031,89.441z M14.146,81.452c-0.143,0.21-0.287,0.417-0.43,0.625
			c0.026,0.019,0.054,0.037,0.08,0.055c0.151-0.204,0.327-0.391,0.417-0.638C14.19,81.48,14.169,81.467,14.146,81.452z
			 M25.19,81.807c0.064-0.11,0.111-0.19,0.159-0.271c-0.027-0.016-0.055-0.032-0.082-0.046C25.188,81.559,25.06,81.605,25.19,81.807
			z M7.528,97.994c0.031,0.016,0.064,0.031,0.097,0.046c0.046-0.11,0.146-0.195,0.109-0.428C7.643,97.783,7.585,97.889,7.528,97.994
			z M8.59,93.427c-0.028,0-0.057,0-0.085,0c0.003,0.06,0.008,0.119,0.012,0.18c0.018,0,0.034,0,0.051,0
			C8.575,93.547,8.583,93.488,8.59,93.427z M32.366,43.662c0.039,0.038,0.077,0.076,0.116,0.113c0.027-0.061,0.06-0.122,0.077-0.186
			c0.003-0.015-0.047-0.044-0.074-0.066C32.446,43.569,32.406,43.614,32.366,43.662z"/>
	</g>
</g>
</svg>
