<?xml version="1.0" encoding="utf-8"?>
<!-- Generator: Adobe Illustrator 16.0.0, SVG Export Plug-In . SVG Version: 6.00 Build 0)  -->
<!DOCTYPE svg PUBLIC "-//W3C//DTD SVG 1.1//EN" "http://www.w3.org/Graphics/SVG/1.1/DTD/svg11.dtd">
<svg version="1.1" id="Emblem" xmlns="http://www.w3.org/2000/svg" xmlns:xlink="http://www.w3.org/1999/xlink" x="0px" y="0px"
	viewBox="0 0 167.379 167.379" enable-background="new 0 0 167.379 167.379"
	 xml:space="preserve">
<path id="Kreis" d="M160.801,51.113c-4.215-9.966-10.25-18.916-17.935-26.601c-7.685-7.685-16.635-13.719-26.601-17.934
	C105.945,2.213,94.985,0,83.688,0C72.393,0,61.432,2.213,51.112,6.578c-9.966,4.215-18.916,10.249-26.601,17.934
	c-7.686,7.685-13.719,16.635-17.934,26.601C2.213,61.433,0,72.393,0,83.689s2.213,22.257,6.578,32.577
	c4.176,9.873,10.139,18.747,17.721,26.382l3.127-5.99c-7.75-8.227-13.727-18.142-17.297-29.134
	c-0.254-0.459-0.453-0.948-0.625-1.444c-0.428-1.241-0.74-2.514-0.879-3.821c-1.473-5.951-2.254-12.171-2.254-18.571
	c0-42.633,34.684-77.318,77.317-77.318s77.319,34.685,77.319,77.318c0,42.634-34.686,77.319-77.319,77.319
	c-13.685,0-26.544-3.582-37.706-9.844l-2.967,5.684c2.617,1.456,5.316,2.777,8.097,3.953c10.319,4.365,21.28,6.578,32.576,6.578
	c11.297,0,22.257-2.213,32.577-6.578c9.966-4.215,18.916-10.249,26.601-17.934c7.685-7.685,13.72-16.635,17.935-26.601
	c4.365-10.32,6.578-21.281,6.578-32.577S165.166,61.433,160.801,51.113z"/>
<path id="q_1_" fill-rule="evenodd" clip-rule="evenodd" d="M24.846,159.986h0.209C24.987,159.991,24.915,159.985,24.846,159.986z
	 M75.407,84.921c-0.076-0.179-0.205-0.34-0.258-0.525c-0.108-0.386-0.292-0.725-0.567-1.013c-0.087-0.093-0.208-0.155-0.299-0.245
	c-0.233-0.231-0.457-0.47-0.686-0.708c-0.081-0.086-0.168-0.147-0.318-0.042c0.024,0.135,0.054,0.285,0.075,0.436
	c0.022,0.146,0.049,0.311-0.127,0.375c-0.151,0.056-0.311,0.156-0.469-0.03c-0.196-0.227-0.497-0.365-0.572-0.696
	c-0.016-0.065-0.079-0.122-0.129-0.176c-0.38-0.404-0.936-0.384-1.404-0.574c-0.037-0.016-0.097,0.008-0.142,0.024
	c-0.289,0.103-0.566,0.11-0.856-0.019c-0.18-0.08-0.375,0.037-0.434,0.215c-0.066,0.199-0.135,0.398-0.2,0.591
	c0.313,0.055,0.418-0.261,0.647-0.424c-0.086,0.243-0.203,0.441-0.214,0.645c-0.011,0.207-0.103,0.289-0.262,0.329
	c-0.134,0.035-0.276,0.034-0.472,0.055c0.093-0.164,0.152-0.268,0.229-0.404c-0.196,0.093-0.452,0.412-0.593,0.735
	c0.222-0.22,0.392-0.184,0.556-0.011c-0.104,0.296-0.228,0.537-0.532,0.677c-0.27,0.125-0.474,0.348-0.564,0.649
	c-0.043,0.146-0.121,0.239-0.276,0.311c-0.251,0.115-0.468,0.31-0.778,0.216c-0.049-0.016-0.117,0.027-0.176,0.045
	c-0.175,0.052-0.35,0.103-0.525,0.156c-0.068,0.022-0.153,0.034-0.203,0.081c-0.273,0.261-0.576,0.324-0.877,0.159
	c-0.085,0.196-0.133,0.391-0.238,0.547c-0.524,0.792-1.06,1.574-1.599,2.355c-0.229,0.333-0.466,0.662-0.716,0.98
	c-0.414,0.527-0.814,1.069-1.272,1.557c-0.327,0.35-0.763,0.593-1.079,0.967c-0.061,0.071-0.165,0.103-0.248,0.156
	c-0.235,0.15-0.476,0.294-0.703,0.457c-0.194,0.141-0.372,0.304-0.592,0.484c0.168,0.024,0.276,0.014,0.3,0.193
	c0.01,0.086,0.27,0.099,0.241,0.267c-0.032,0.186,0.155,0.13,0.217,0.254c-0.045,0.064-0.088,0.153-0.156,0.212
	c-0.226,0.19-0.46,0.37-0.691,0.551c-0.785,0.611-1.57,1.222-2.355,1.831c-0.091,0.07-0.192,0.124-0.289,0.185
	c0.226-0.41,0.695-0.602,0.816-1.083c-0.204,0.072-0.384,0.17-0.56,0.276c-0.126,0.076-0.243,0.165-0.367,0.245
	c-0.134,0.087-0.261,0.085-0.421-0.043c0.391-0.296,0.756-0.574,1.119-0.851c-0.046-0.067-0.078-0.114-0.119-0.174
	c0.089-0.082,0.176-0.162,0.299-0.277c-0.339,0.07-0.527,0.289-0.75,0.443c-0.239,0.168-0.444,0.409-0.706,0.511
	c-0.212,0.082-0.395,0.177-0.563,0.316c-0.073,0.062-0.147,0.125-0.228,0.178c-0.51,0.334-1.021,0.663-1.53,0.996
	c-0.06,0.039-0.162,0.097-0.158,0.137c0.042,0.391-0.271,0.521-0.494,0.73c-0.252,0.238-0.522,0.43-0.863,0.525
	c-0.205,0.055-0.417,0.178-0.464,0.386c-0.051,0.234-0.205,0.317-0.374,0.411c-0.748,0.42-1.502,0.833-2.247,1.257
	c-0.903,0.512-1.8,1.035-2.703,1.549c-0.821,0.466-1.645,0.928-2.47,1.385c-0.266,0.148-0.533,0.3-0.815,0.404
	c-0.275,0.1-0.569,0.141-0.855,0.207c-0.016,0.003-0.036-0.021-0.095-0.057c0.176-0.16,0.329-0.324,0.507-0.457
	c0.194-0.146,0.408-0.271,0.62-0.393c0.18-0.102,0.372-0.183,0.554-0.282c0.226-0.12,0.465-0.225,0.655-0.385
	c0.09-0.076,0.117-0.198,0.275-0.166c0.041,0.009,0.107-0.04,0.145-0.079c0.103-0.111,0.197-0.232,0.339-0.399
	c-0.095,0.041-0.136,0.056-0.174,0.075c-1.213,0.648-2.417,1.31-3.639,1.94c-0.841,0.433-1.694,0.838-2.557,1.226
	c-0.614,0.275-1.253,0.503-1.879,0.75c-0.95,0.373-1.894,0.759-2.849,1.11c-0.6,0.219-1.219,0.391-1.861,0.425
	c-0.449,0.023-0.879-0.034-1.168-0.46c-0.079-0.117-0.113-0.206-0.064-0.333c0.066-0.17,0.123-0.345,0.19-0.514
	c0.214-0.534,0.388-1.083,0.698-1.577c0.271-0.435,0.5-0.899,0.764-1.339c0.276-0.46,0.559-0.918,0.865-1.36
	c0.479-0.689,0.985-1.361,1.474-2.046c0.716-1.009,1.423-2.024,2.142-3.03c0.341-0.478,0.703-0.94,1.053-1.412
	c0.205-0.276,0.389-0.569,0.611-0.831c0.97-1.144,2.045-2.185,3.171-3.173c0.23-0.203,0.478-0.387,0.71-0.588
	c0.666-0.575,1.322-1.162,1.993-1.73c0.428-0.362,0.873-0.702,1.315-1.046c0.263-0.203,0.529-0.397,0.804-0.582
	c0.071-0.047,0.18-0.037,0.305-0.059c0.05-0.228,0.254-0.378,0.472-0.516c0.093-0.059,0.188-0.115,0.281-0.175
	c0.825-0.528,1.644-1.068,2.479-1.581c0.781-0.48,1.575-0.941,2.373-1.393c0.756-0.429,1.516-0.855,2.293-1.242
	c0.579-0.288,1.179-0.544,1.789-0.753c0.859-0.292,1.729-0.559,2.608-0.777c0.531-0.132,1.09-0.157,1.639-0.223
	c0.477-0.056,0.952-0.098,1.35-0.415c0.181-0.145,0.376-0.272,0.564-0.404c0.211-0.147,0.408-0.317,0.634-0.437
	c0.537-0.283,0.854-0.801,1.298-1.185c0.025-0.022,0.036-0.063,0.056-0.094c0.307-0.467,0.304-0.966,0.168-1.488
	c-0.078-0.298-0.116-0.609-0.172-0.912c-0.221,0.102-0.312-0.164-0.453-0.246c-0.197,0.036-0.365,0.066-0.533,0.096
	c-0.387,0.067-0.773,0.123-1.157,0.207c-0.466,0.103-0.919,0.01-1.374-0.054c-0.075-0.01-0.143-0.072-0.214-0.11
	c0.007-0.022,0.013-0.044,0.019-0.067c0.25,0.03,0.498,0.058,0.747,0.086c0.005-0.024,0.011-0.047,0.016-0.071
	c-0.333-0.111-0.667-0.221-1.046-0.346c0.146-0.066,0.241-0.11,0.369-0.169c-0.215-0.093-0.398-0.144-0.534-0.021
	c-0.19,0.171-0.332-0.092-0.496-0.017c-0.056,0.024-0.109,0.066-0.167,0.072c-0.032,0.003-0.07-0.048-0.131-0.092
	c0.105-0.08,0.189-0.142,0.299-0.224c-0.184-0.065-0.342-0.12-0.513-0.182c-0.262,0.287-0.56,0.505-0.935,0.604
	c-0.054,0.013-0.1,0.058-0.145,0.094c-0.112,0.088-0.211,0.205-0.336,0.263c-0.211,0.097-0.441,0.148-0.657,0.236
	c-0.607,0.248-1.206,0.521-1.82,0.755c-1.293,0.496-2.595,0.974-3.892,1.458c-1.058,0.395-2.112,0.798-3.089,1.378
	c-0.356,0.213-0.731,0.397-1.084,0.617c-0.821,0.511-1.677,0.981-2.44,1.568c-1.206,0.924-2.357,1.92-3.517,2.903
	c-0.747,0.632-1.477,1.285-2.198,1.947c-1.04,0.954-2.138,1.835-3.254,2.697c-0.852,0.657-1.704,1.316-2.467,2.078
	c-0.214,0.212-0.521,0.343-0.616,0.666c-0.069,0.064-0.138,0.128-0.205,0.193c-0.042,0.025-0.092,0.043-0.124,0.077
	c-0.57,0.67-1.138,1.343-1.727,2.037c0.244,0.04,0.311,0.15,0.251,0.321c-0.048,0.136-0.106,0.274-0.184,0.397
	c-0.171,0.267-0.353,0.528-0.534,0.788c-0.441,0.632-0.88,1.266-1.331,1.891c-0.119,0.167-0.261,0.33-0.423,0.45
	c-0.218,0.161-0.466,0.278-0.716,0.423c0.097,0,0.19,0,0.348,0c-0.235,0.318-0.442,0.59-0.639,0.868
	c-0.063,0.091-0.194-0.02-0.254,0.143c-0.139,0.374-0.331,0.729-0.504,1.09c-0.063,0.131-0.112,0.277-0.204,0.387
	c-0.209,0.248-0.275,0.549-0.314,0.848c-0.088,0.654-0.129,1.303-0.418,1.92c-0.194,0.417-0.266,0.89-0.412,1.331
	c-0.322,0.956-0.405,1.94-0.365,2.94c0.035,0.94,0.242,1.849,0.547,2.731c0.195,0.565,0.451,1.115,0.895,1.55
	c0.156,0.154,0.301,0.323,0.422,0.506c0.443,0.66,0.96,1.229,1.698,1.578c0.521,0.246,1.025,0.505,1.611,0.584
	c0.29,0.039,0.579,0.033,0.861,0.075c0.792,0.121,1.559,0.003,2.321-0.169c0.688-0.155,1.368-0.355,2.047-0.549
	c0.682-0.196,1.35-0.432,1.989-0.742c0.239-0.118,0.479-0.26,0.735-0.319c0.449-0.107,0.851-0.303,1.244-0.529
	c0.563-0.322,1.111-0.673,1.688-0.974c0.747-0.392,1.518-0.739,2.271-1.122c0.47-0.238,0.925-0.505,1.386-0.759
	c0.514-0.283,1.025-0.571,1.541-0.849c0.344-0.185,0.703-0.342,1.039-0.54c0.181-0.107,0.424-0.166,0.47-0.438
	c0.009-0.058,0.097-0.106,0.155-0.151c0.566-0.426,1.14-0.844,1.701-1.278c0.464-0.36,0.924-0.725,1.363-1.113
	c0.152-0.134,0.398-0.272,0.267-0.564c-0.009-0.021,0.022-0.069,0.048-0.092c0.486-0.448,0.967-0.899,1.467-1.334
	c0.172-0.151,0.381-0.264,0.58-0.384c0.183-0.112,0.191-0.339,0.306-0.468c0.239-0.272,0.557-0.478,0.842-0.71
	c0.021,0.016,0.041,0.033,0.062,0.05c-0.091,0.21-0.161,0.434-0.275,0.63c-0.25,0.434-0.505,0.87-0.792,1.281
	c-0.442,0.631-0.756,1.322-1.006,2.058c0.168-0.206,0.335-0.413,0.504-0.619c0.027,0.076,0.02,0.138-0.01,0.184
	c-0.129,0.193-0.269,0.38-0.394,0.577c-0.053,0.078-0.132,0.23-0.107,0.254c0.172,0.166,0.005,0.27-0.06,0.371
	c-0.263,0.415-0.554,0.81-0.81,1.23c-0.312,0.51-0.574,1.05-0.898,1.552c-1.019,1.577-2.088,3.121-2.965,4.788
	c-0.285,0.542-0.606,1.065-0.904,1.602c-0.285,0.512-0.561,1.03-0.843,1.544c-0.274,0.503-0.588,0.985-0.791,1.528
	c-0.079,0.211-0.259,0.383-0.386,0.578c-0.076,0.115-0.149,0.232-0.223,0.348c-0.065,0.103-0.13,0.205-0.194,0.308
	c-0.012,0.011-0.022,0.023-0.034,0.035c-0.003,0.007-0.009,0.015-0.014,0.023c0.009-0.007,0.015-0.011,0.021-0.016l0,0
	c0.01-0.015,0.018-0.028,0.026-0.043c0.019-0.018,0.038-0.038,0.056-0.058c0.053-0.053,0.109-0.111,0.174-0.178
	c0.039-0.041,0.081-0.082,0.129-0.132c-0.084,0.19-0.129,0.301-0.182,0.408c-0.314,0.649-0.631,1.299-0.943,1.951
	c-0.641,1.341-1.298,2.665-2.173,3.884c-0.852,1.183-1.6,2.441-2.379,3.676c-0.302,0.477-0.547,0.987-0.839,1.468
	c-0.313,0.51-0.651,1.002-0.972,1.507c-0.546,0.86-1.099,1.719-1.628,2.59c-0.506,0.833-0.994,1.678-1.48,2.522
	c-0.146,0.254-0.272,0.521-0.401,0.784c-0.123,0.252-0.233,0.512-0.358,0.765c-0.12,0.247-0.16,0.523-0.333,0.755
	c-0.146,0.197-0.315,0.414-0.268,0.697c-0.222,0.189-0.178,0.461-0.234,0.695c-0.104,0.076-0.2,0.16-0.245,0.265
	c-0.057,0.131-0.058,0.285-0.106,0.42c-0.08,0.225-0.168,0.448-0.273,0.661c-0.196,0.391-0.417,0.772-0.608,1.166
	c-0.043,0.087-0.051,0.233-0.008,0.316c0.195,0.378,0.023,0.73-0.116,1.041c-0.327,0.723-0.718,1.416-1.087,2.119
	c-0.193,0.369-0.44,0.716-0.587,1.101c-0.26,0.687-0.65,1.307-0.938,1.981c-0.188,0.441-0.347,0.882-0.48,1.339
	c-0.084,0.289-0.161,0.581-0.24,0.871c-0.016-0.003-0.03-0.007-0.046-0.01c-0.012-0.205-0.022-0.408-0.033-0.612
	c-0.165,0.229-0.233,0.46-0.195,0.725c0.044,0.323,0.018,0.395-0.138,0.569c0.002-0.654,0.131-1.28,0.069-1.913
	c-0.088,0.144-0.153,0.291-0.171,0.443c-0.061,0.509-0.113,1.021-0.146,1.533c-0.016,0.279-0.065,0.531-0.27,0.738
	c-0.068,0.069-0.104,0.169-0.171,0.239c-0.349,0.368-0.505,0.912-1.055,1.113c0.16,0.141,0.043,0.229-0.025,0.321
	c-0.434,0.582-0.869,1.159-1.3,1.742c-0.053,0.07-0.079,0.161-0.117,0.243c0.024,0.019,0.049,0.036,0.074,0.055
	c0.031-0.052,0.056-0.11,0.095-0.155c0.622-0.739,1.246-1.476,1.872-2.213c0.062-0.073,0.13-0.178,0.211-0.195
	c0.243-0.05,0.494-0.065,0.805-0.102c-0.18,0.27-0.324,0.484-0.49,0.729c0.104-0.021,0.156-0.032,0.256-0.054
	c-0.082,0.118-0.139,0.207-0.203,0.289c-0.687,0.882-1.375,1.76-2.059,2.643c-0.056,0.073-0.195,0.132-0.092,0.281
	c0.073-0.056,0.15-0.1,0.204-0.165c0.235-0.284,0.484-0.559,0.683-0.866c0.117-0.184,0.273-0.264,0.4-0.306
	c0.083-0.164,0.121-0.296,0.203-0.393c0.253-0.296,0.521-0.58,0.785-0.868c0.055-0.058,0.118-0.106,0.178-0.159
	c0.012,0.01,0.025,0.02,0.038,0.028c-0.045,0.104-0.091,0.207-0.136,0.306c0.061,0.043,0.108,0.077,0.138,0.098
	c-0.032,0.088-0.053,0.167-0.089,0.239c-0.061,0.125-0.11,0.267-0.203,0.365c-0.158,0.164-0.249,0.29-0.303,0.579
	c0.242-0.179,0.33-0.496,0.683-0.63c-0.347,0.444-0.657,0.822-0.942,1.215c-0.219,0.301-0.396,0.631-0.61,0.933
	c-0.07,0.099,0.501,0.516-0.218,0.492c-0.04-0.001,0.981-0.253,0.938-0.25l1.08-0.236l0.974,0.228l0.344,0h0.004
	c0.127,0.005,1.021-0.894,1.148-0.889c0.113,0.004-0.539,0.912-0.428,0.915c0.063,0.001,2.012-2.721,2.063-2.746l-1.331,2.717
	c0.002,0.007,1.114-1.31,1.116-1.304c0.204,0-0.7,1.329-0.497,1.321c0.031,0,0.059-0.008,0.08-0.018l0,0l0.805,0.263l0.646-0.266
	c-0.149,0,0.262-0.445,0.084-0.464c0.219-0.361-0.182-0.281,0.044-0.563c0.122-0.152,0.165-0.307,0.229-0.474
	c0.161-0.423,0.34-0.839,0.534-1.249c0.084-0.177,0.305-0.296,0.195-0.549c-0.015-0.04,0.069-0.121,0.105-0.182
	c0.08-0.137,0.174-0.268,0.239-0.41c0.105-0.235,0.195-0.477,0.292-0.716c0.202-0.5,0.411-0.999,0.608-1.502
	c0.313-0.795,0.619-1.594,0.932-2.39c0.025-0.066,0.079-0.124,0.129-0.177c0.255-0.268,0.505-0.542,0.769-0.801
	c0.251-0.247,0.487-0.506,0.755-0.741c0.334-0.291,0.557-0.708,0.835-1.064c0.215-0.277,0.454-0.536,0.659-0.82
	c0.215-0.293,0.403-0.606,0.595-0.917c0.025-0.041,0.004-0.109,0.004-0.183c-0.092,0.056-0.154,0.096-0.229,0.142
	c-0.007-0.056-0.021-0.083-0.012-0.103c0.254-0.665,0.511-1.326,0.769-1.987c0.018-0.045,0.051-0.083,0.074-0.127
	c0.287-0.565,0.573-1.13,0.859-1.695c0.266-0.524,0.524-1.051,0.797-1.57c0.072-0.14,0.246-0.248,0.266-0.385
	c0.047-0.323,0.249-0.555,0.393-0.821c0.129-0.236,0.271-0.465,0.412-0.697c0.392-0.649,0.785-1.297,1.176-1.946
	c0.313-0.526,0.639-1.045,0.933-1.582c0.329-0.601,0.628-1.218,0.937-1.827c0.216-0.428,0.438-0.853,0.641-1.286
	c0.098-0.209,0.141-0.445,0.24-0.653c0.305-0.639,0.631-1.268,0.943-1.904c0.183-0.371,0.335-0.758,0.538-1.117
	c0.183-0.324,0.405-0.612,0.515-0.986c0.119-0.406,0.337-0.786,0.537-1.164c0.272-0.509,0.455-1.067,0.848-1.519
	c-0.062-0.04-0.114-0.074-0.201-0.129c0.137-0.106,0.252-0.192,0.362-0.285c0.103-0.088,0.238-0.194,0.173-0.337
	c-0.109-0.236,0.019-0.297,0.194-0.377c0.079-0.035,0.13-0.134,0.197-0.207c-0.088-0.059-0.152-0.104-0.238-0.164
	c0.093-0.167,0.184-0.311,0.253-0.467c0.061-0.139,0.096-0.29,0.149-0.457c-0.174,0.037-0.203,0.284-0.418,0.17
	c0.187-0.285,0.366-0.561,0.55-0.841c0.043,0.038,0.08,0.068,0.151,0.129c0.06-0.161,0.29-0.235,0.151-0.469
	c-0.014-0.024-0.001-0.076,0.016-0.101c0.125-0.179,0.239-0.37,0.389-0.526c0.282-0.298,0.42-0.657,0.514-1.045
	c-0.139,0.131-0.171,0.364-0.463,0.385c0.146-0.239,0.246-0.475,0.409-0.65c0.214-0.229,0.485-0.405,0.72-0.618
	c0.115-0.104,0.289-0.248,0.277-0.359c-0.019-0.209,0.105-0.311,0.194-0.444c0.089-0.131,0.19-0.254,0.28-0.384
	c0.385-0.564,0.775-1.126,1.152-1.698c0.436-0.665,0.871-1.331,1.286-2.009c0.263-0.429,0.481-0.883,0.732-1.321
	c0.228-0.4,0.559-0.74,0.686-1.199c0.013-0.043,0.052-0.081,0.081-0.119c0.379-0.496,0.765-0.989,1.131-1.494
	c0.074-0.101,0.146-0.296,0.1-0.373c-0.164-0.266,0.009-0.375,0.176-0.495c0.299-0.213,0.475-0.523,0.668-0.84
	c-0.187,0.136-0.373,0.154-0.568,0.062c-0.051-0.212,0.118-0.299,0.248-0.363c0.211-0.102,0.357-0.253,0.476-0.443
	c0.221-0.36,0.499-0.677,0.739-1.025c0.42-0.611,0.941-1.147,1.326-1.79c0.109-0.18,0.19-0.385,0.325-0.552
	c0.3-0.366,0.599-0.731,0.895-1.101c0.131-0.162,0.262-0.326,0.373-0.502c0.472-0.732,1.026-1.388,1.644-2.008
	c0.514-0.518,0.956-1.11,1.404-1.691c0.334-0.434,0.599-0.923,0.942-1.349c0.665-0.824,1.248-1.705,1.799-2.603
	c0.659-1.077,1.262-2.188,1.895-3.281c0.35-0.605,0.689-1.217,1.074-1.798c0.391-0.591,0.81-1.166,1.313-1.669
	c0.527-0.526,1.05-1.055,1.545-1.613c0.448-0.507,0.539-1.107,0.59-1.728C75.557,85.225,75.47,85.066,75.407,84.921z
	 M26.306,152.436c0.453-0.826,0.905-1.653,1.342-2.488c0.107-0.204,0.246-0.419,0.189-0.69c-0.192,0.324-0.377,0.637-0.564,0.948
	c-0.567,0.944-1.01,1.962-1.66,2.858c-0.107,0.149-0.188,0.316-0.285,0.473c-0.464,0.751-0.923,1.505-1.401,2.247
	c-0.223,0.346-0.389,0.739-0.691,0.946c-0.032,0.18-0.057,0.31-0.096,0.529c0.202-0.304,0.353-0.542,0.516-0.772
	c0.594-0.839,1.21-1.665,1.782-2.519C25.763,153.481,26.023,152.952,26.306,152.436z M35.956,132.647
	c0.287-0.47,0.604-0.921,0.88-1.398c0.704-1.21,1.428-2.405,2.251-3.538c0.103-0.144,0.189-0.301,0.285-0.451
	c-0.031-0.025-0.063-0.049-0.092-0.075c-0.187,0.271-0.365,0.546-0.56,0.812c-0.375,0.513-0.759,1.023-1.135,1.537
	c-0.071,0.099-0.132,0.208-0.19,0.316c-0.177,0.329-0.334,0.67-0.529,0.989c-0.327,0.529-0.685,1.04-1.017,1.568
	c-0.103,0.163-0.162,0.353-0.243,0.531c-0.058,0.132-0.103,0.275-0.183,0.396c-0.236,0.359-0.49,0.705-0.73,1.062
	c-0.177,0.265-0.345,0.54-0.557,0.874c0.12-0.038,0.166-0.037,0.179-0.059c0.41-0.596,0.822-1.19,1.219-1.794
	C35.692,133.172,35.803,132.896,35.956,132.647z M33.429,136.506c-0.555,0.669-1.8,3.178-1.774,3.549
	c0.336-0.64,0.646-1.208,0.934-1.786C32.88,137.687,33.15,137.094,33.429,136.506z M43.6,120.871
	c-0.151,0.181-0.323,0.346-0.459,0.538c-0.23,0.322-0.44,0.661-0.655,0.994c-0.022,0.036-0.022,0.084-0.032,0.127
	c0.67-0.617,1.17-1.35,1.608-2.125c-0.093,0.071-0.192,0.137-0.276,0.219C43.713,120.695,43.666,120.792,43.6,120.871z
	 M29.939,143.42c0.707-0.72,0.9-1.694,1.238-2.6C30.765,141.686,30.352,142.553,29.939,143.42z M34.055,135.431
	c-0.143,0.21-0.287,0.417-0.43,0.625c0.026,0.019,0.054,0.037,0.08,0.055c0.151-0.204,0.327-0.391,0.417-0.638
	C34.099,135.459,34.077,135.446,34.055,135.431z M45.099,135.786c0.064-0.11,0.111-0.19,0.159-0.271
	c-0.027-0.016-0.055-0.032-0.082-0.046C45.097,135.538,44.968,135.584,45.099,135.786z M27.437,151.973
	c0.031,0.016,0.064,0.031,0.097,0.046c0.046-0.11,0.146-0.195,0.109-0.428C27.551,151.762,27.493,151.868,27.437,151.973z
	 M28.498,147.406c-0.028,0-0.057,0-0.085,0c0.003,0.06,0.008,0.119,0.012,0.18c0.018,0,0.034,0,0.051,0
	C28.483,147.526,28.491,147.467,28.498,147.406z M52.274,97.641c0.039,0.038,0.077,0.076,0.116,0.113
	c0.027-0.061,0.06-0.122,0.077-0.186c0.003-0.015-0.047-0.044-0.074-0.066C52.354,97.548,52.314,97.593,52.274,97.641z"/>
<path id="G" d="M135.98,59.32c3.559,1.339,6.336,3.204,8.332,5.597l-1.197,1.111c-4.102-4.728-10.596-7.093-19.482-7.093
	c-6.781,0-12.748,1.553-17.902,4.657c-5.158,3.105-9.145,7.293-11.965,12.562c-2.818,5.27-4.229,11.038-4.229,17.304
	c0,6.894,2.178,12.377,6.537,16.45c4.357,4.074,10.639,6.11,18.842,6.11c7.121,0,13.473-2.278,19.057-6.836l4.186-21.106h1.625
	l-4.359,21.875c-2.621,2.393-5.711,4.273-9.271,5.64s-7.363,2.051-11.408,2.051c-5.697,0-10.566-0.996-14.611-2.991
	c-4.045-1.994-7.107-4.813-9.186-8.46c-2.082-3.645-3.119-7.89-3.119-12.732c0-6.437,1.451-12.419,4.357-17.945
	c2.906-5.525,7.092-9.94,12.561-13.245c5.471-3.303,11.822-4.956,19.057-4.956C128.359,57.312,132.42,57.982,135.98,59.32z"/>
<path id="Punkt" fill-rule="evenodd" clip-rule="evenodd" d="M70.021,107.386c0.133,0.035,0.231,0.053,0.322,0.09
	c0.093,0.038,0.178,0.094,0.283,0.152c0.057-0.073,0.106-0.129,0.148-0.191c0.09-0.136,0.15-0.319,0.363-0.289
	c0.234,0.033,0.462,0.103,0.55,0.36c0.09,0.267,0.167,0.539,0.255,0.823c0.279-0.07,0.569-0.14,0.855-0.216
	c0.144-0.038,0.275-0.056,0.398,0.058c0.065,0.062,0.146,0.109,0.222,0.157c0.187,0.113,0.377,0.174,0.579,0.036
	c0.021-0.014,0.046-0.032,0.069-0.033c0.149-0.005,0.365-0.065,0.432,0.008c0.088,0.099,0.111,0.313,0.075,0.456
	c-0.046,0.18-0.065,0.302,0.083,0.45c0.143,0.142,0.197,0.333,0.033,0.521c-0.082,0.095-0.105,0.209-0.021,0.322
	c0.169,0.223,0.068,0.468-0.008,0.669c-0.04,0.111-0.261,0.199-0.411,0.221c-0.38,0.055-0.472,0.099-0.538,0.465
	c-0.059,0.327-0.109,0.65-0.088,0.996c0.02,0.307-0.119,0.625-0.324,0.886c-0.115,0.144-0.167,0.294-0.188,0.49
	c-0.028,0.288-0.143,0.57-0.239,0.847c-0.03,0.088-0.109,0.185-0.192,0.226c-0.322,0.163-0.461,0.433-0.5,0.755
	c-0.196,0.137-0.395,0.253-0.566,0.399c-0.281,0.238-0.433,0.271-0.792,0.108c-0.235,0.25-0.502,0.464-0.895,0.379
	c-0.374-0.08-0.642-0.267-0.696-0.675c-0.127-0.021-0.236-0.021-0.329-0.057c-0.186-0.075-0.402-0.118-0.451-0.368
	c-0.008-0.045-0.041-0.098-0.079-0.123c-0.282-0.187-0.503-0.439-0.714-0.697c-0.202-0.249-0.394-0.505-0.578-0.767
	c-0.146-0.21-0.255-0.434-0.486-0.589c-0.227-0.153-0.322-0.429-0.384-0.72c0.266-0.179,0.421-0.415,0.371-0.748
	c0.242-0.422,0.016-0.889,0.129-1.332c0.064-0.248-0.037-0.533-0.038-0.801c-0.002-0.138,0.008-0.316,0.089-0.407
	c0.295-0.332,0.311-0.757,0.443-1.142c0.016-0.047,0.049-0.088,0.083-0.148c0.437,0.057,0.572,0.398,0.726,0.723
	c0.021-0.003,0.053,0.001,0.066-0.012c0.324-0.292,0.66-0.354,1.087-0.178c0.372,0.153,0.389,0.105,0.524-0.259
	C69.791,107.959,69.903,107.688,70.021,107.386z"/>
</svg>
